<svg xmlns="http://www.w3.org/2000/svg" width="869.437" height="583.956" viewBox="0 0 869.437 583.956">
  <g id="Interactive_financial_model" data-name="Interactive financial model" transform="translate(-39.23 -28.36)">
    <g id="freepik--background-complete--inject-18" transform="translate(77.669 28.36)">
      <path id="Path_912" data-name="Path 912" d="M301.741,368.792a48.739,48.739,0,0,1,12.584,3.314l9.257-7.768,15.886,12.105-5,10.979a49.108,49.108,0,0,1,6.564,11.264l12.028,1.062,2.68,19.8-11.3,4.221a48.628,48.628,0,0,1-3.327,12.584l7.768,9.257-12.092,15.886-11.018-4.933a48.836,48.836,0,0,1-11.251,6.551l-1.049,12.028-19.8,2.68-4.221-11.3a48.858,48.858,0,0,1-12.6-3.327l-9.244,7.768L251.7,458.785l5.01-10.992a49.072,49.072,0,0,1-6.564-11.238l-12.015-1.062-2.693-19.8,11.316-4.221a48.849,48.849,0,0,1,3.314-12.6l-7.768-9.244L254.433,373.7l10.979,5.01a49.2,49.2,0,0,1,11.251-6.564l1.062-12.015,19.783-2.68,4.234,11.3ZM295.8,396.084a21.427,21.427,0,1,0,21.531,16.456A21.427,21.427,0,0,0,295.8,396.084Z" transform="translate(-19.848 68.62)" fill="#e0e0e0" fill-rule="evenodd"/>
      <path id="Path_913" data-name="Path 913" d="M137.257,155.33V97.82a57.51,57.51,0,1,1-57.5,58.844Z" transform="translate(-65.726 -7.891)" fill="#e0e0e0"/>
      <path id="Path_914" data-name="Path 914" d="M126.43,143.35l-57.51,1.295c0-14.98,5.852-30.684,16.287-41.43a59.116,59.116,0,0,1,40.33-17.375Z" transform="translate(-68.92 -11.421)" fill="#f5f5f5"/>
      <path id="Path_915" data-name="Path 915" d="M628.143,39.663a48.745,48.745,0,0,1,12.584,3.314l9.257-7.768,15.886,12.105-5,10.979a49.106,49.106,0,0,1,6.551,11.251l12.028,1.062,2.68,19.8-11.355,4.234a48.629,48.629,0,0,1-3.327,12.584l7.768,9.257-12.092,15.886-10.992-5a48.834,48.834,0,0,1-11.251,6.551l-1.049,12.028-19.8,2.68-4.221-11.3a48.861,48.861,0,0,1-12.6-3.327l-9.244,7.768-15.9-12.092,5.01-10.992a49.067,49.067,0,0,1-6.564-11.238l-11.911-1.075-2.693-19.8,11.316-4.221a48.852,48.852,0,0,1,3.314-12.6l-7.768-9.244,12.105-15.9,10.914,5.01a49.2,49.2,0,0,1,11.251-6.564l1.062-12.015L623.9,28.36l4.234,11.3ZM622.2,66.955a21.427,21.427,0,1,0,21.531,16.391A21.427,21.427,0,0,0,622.2,66.955Z" transform="translate(76.363 -28.36)" fill="#e0e0e0" fill-rule="evenodd"/>
    </g>
    <g id="freepik--Floor--inject-18" transform="translate(39.23 591.926)">
      <path id="Path_916" data-name="Path 916" d="M908.667,463.987c0,.181-194.644.337-434.693.337s-434.744-.155-434.744-.337,194.605-.337,434.744-.337S908.667,463.805,908.667,463.987Z" transform="translate(-39.23 -463.65)" fill="#7f8486"/>
    </g>
    <g id="freepik--Gears--inject-18" transform="translate(71.183 124.996)">
      <path id="Path_917" data-name="Path 917" d="M167.135,253a45.86,45.86,0,0,1,9.943,7l10.629-3.78,9.982,15.756-7.936,7.988a45.379,45.379,0,0,1,2.084,11.989l10.189,4.829-4.091,18.2H186.672a45.547,45.547,0,0,1-7,9.943l3.781,10.629-15.782,10-8-7.949a46.258,46.258,0,0,1-11.976,2.084l-4.842,10.176-18.2-4.078V334.513a46.169,46.169,0,0,1-9.943-7l-10.616,3.781-10-15.756,7.962-7.988a46.454,46.454,0,0,1-2.084-11.989L89.79,290.726l4.078-18.2h11.277a44.681,44.681,0,0,1,6.927-9.956l-3.781-10.629,15.808-9.956,7.988,7.962a45.83,45.83,0,0,1,11.989-2.1l4.829-10.176,18.2,4.078v11.277Zm-16.054,21.427a19.99,19.99,0,1,0,12.53,8.809,20,20,0,0,0-12.53-8.809Z" transform="translate(-56.283 -63.314)" fill="#41d9ca" fill-rule="evenodd"/>
      <path id="Path_919" data-name="Path 919" d="M167.116,376.055a13.88,13.88,0,0,1,4.285,1.295,18.255,18.255,0,0,1,10.267,16.973,18.537,18.537,0,0,1-32.484,11.626,17.478,17.478,0,0,1-2.991-4.713,17.271,17.271,0,0,1-1.411-5.179,18.332,18.332,0,0,1,17.932-20.637,13.7,13.7,0,0,1,4.441.621c0,.129-1.58-.311-4.428-.207a18.022,18.022,0,0,0-10.94,4.311,17.711,17.711,0,0,0-6.059,15.8,16.623,16.623,0,0,0,1.372,4.868,16.833,16.833,0,0,0,2.848,4.454,17.53,17.53,0,0,0,20.288,4.57,17.719,17.719,0,0,0,9.063-23.447,18.126,18.126,0,0,0-8.04-8.584A33.083,33.083,0,0,0,167.116,376.055Z" transform="translate(-40.12 -22.721)" fill="#fff"/>
      <path id="Path_920" data-name="Path 920" d="M189.3,364.167V361.6c0-1.774-.065-4.311-.1-7.626l.129.155-16.494-3.6.3-.142c-1.295,2.8-2.771,5.9-4.337,9.231l-.078.168h-.181a41.351,41.351,0,0,0-10.746,1.916H157.6l-.155-.155-7.25-7.173h.466l-14.242,9.063.168-.479,3.444,9.594.091.246-.181.194a40.9,40.9,0,0,0-6.253,8.907l-.129.246h-.272l-10.319.22.453-.363c-1.152,5.179-2.408,10.746-3.677,16.469l-.259-.544,9.205,4.363.272.129v.3a40.512,40.512,0,0,0,1.877,10.707l.091.3-.22.207-7.2,7.237.078-.634,9.063,14.242-.609-.207,9.607-3.431.3-.1.233.22a40.926,40.926,0,0,0,8.869,6.253h0l.272.453h0v10.189l-.4-.5,16.456,3.69-.57.285,4.376-9.205.129-.285h.311a40.524,40.524,0,0,0,10.707-1.851l.3-.091.207.22,7.224,7.2-.609-.065,14.242-9.063-.194.57-3.405-9.62-.091-.259.194-.207a41.549,41.549,0,0,0,6.279-8.895l.117-.233h10.474l-.427.337c1.295-5.787,2.589-11.251,3.729-16.456l.22.453-9.192-4.4-.207-.091v-.233a40.964,40.964,0,0,0-1.838-10.746l-.065-.207.142-.142,7.224-7.2v.375c-3.483-5.528-6.473-10.254-8.972-14.242l.272.091-9.633,3.366h-.091l-.078-.065a44.338,44.338,0,0,0-6.473-5.049l-1.761-1.049a4.689,4.689,0,0,1-.583-.363,6.087,6.087,0,0,1,.621.285c.4.207,1.01.518,1.8.984a39.954,39.954,0,0,1,6.694,4.946h-.168l9.581-3.47h.181l.1.155,9.063,14.242.129.207-.168.168-7.173,7.25.078-.337a41.6,41.6,0,0,1,1.942,10.927l-.22-.324,9.218,4.35.3.142-.078.311q-1.728,7.768-3.664,16.468v.337H207.028l.388-.233a41.524,41.524,0,0,1-6.4,9.063l.1-.479,3.431,9.607.13.362-.324.207-14.242,9.063-.337.22-.285-.285-7.237-7.186.5.117a41.351,41.351,0,0,1-10.966,1.916l.44-.285-4.363,9.205-.181.375-.4-.091-16.468-3.69-.4-.091v-10.6h0c.557.906.155.246.272.453h0a42.194,42.194,0,0,1-9.063-6.473l.531.117-9.736,3.3-.4.142-.22-.35c-3.094-4.907-6.163-9.749-9.063-14.242l-.207-.337.285-.3,7.2-7.224-.117.518a42.078,42.078,0,0,1-1.9-10.979l.272.427-9.192-4.363-.35-.168.091-.375c1.295-5.723,2.589-11.29,3.716-16.469l.078-.363h10.565l-.388.233a41.43,41.43,0,0,1,6.409-9.063l-.091.44c-1.178-3.366-2.343-6.642-3.392-9.62l-.117-.311.285-.168,14.267-9,.259-.168.207.207,7.2,7.224-.337-.091a42.052,42.052,0,0,1,10.927-1.864l-.259.181,4.4-9.192.1-.194h.194l16.443,3.781h.142v9.645A4.555,4.555,0,0,1,189.3,364.167Z" transform="translate(-47.755 -30.214)" fill="#fff"/>
      <path id="Path_921" data-name="Path 921" d="M108.939,334.373a26.943,26.943,0,0,1,5.787,4.078l6.176-2.2,5.813,9.179-4.622,4.648a26.722,26.722,0,0,1,1.2,6.978l5.93,2.81-2.369,10.6h-6.564a26.943,26.943,0,0,1-4.078,5.787l2.2,6.176-9.179,5.878-4.648-4.622a26.812,26.812,0,0,1-6.978,1.2l-2.809,5.93-10.6-2.369v-6.616a26.945,26.945,0,0,1-5.787-4.078l-6.189,2.2-5.813-9.179,4.635-4.648a27.382,27.382,0,0,1-1.217-6.978l-5.917-2.809,2.369-10.6H72.83a26.5,26.5,0,0,1,4.143-5.8l-2.2-6.189,9.166-5.813,4.661,4.635a27.19,27.19,0,0,1,6.978-1.217l2.809-5.917,10.591,2.369v6.564ZM99.592,346.88a11.652,11.652,0,1,0,8.817,13.918,11.652,11.652,0,0,0-8.817-13.918Z" transform="translate(-63.91 -37.449)" fill="#befff9" fill-rule="evenodd"/>
      <path id="Path_923" data-name="Path 923" d="M635.145,192.453a33.8,33.8,0,0,1,8.649,2.279l6.344-5.321,10.9,8.3-3.431,7.548a33.661,33.661,0,0,1,4.506,7.768l8.247.725,1.838,13.581-7.768,2.9a33.578,33.578,0,0,1-2.279,8.636l5.321,6.357-8.3,10.9-7.548-3.431a33.661,33.661,0,0,1-7.768,4.506l-.673,8.182L629.6,267.221l-2.9-7.768a33.571,33.571,0,0,1-8.635-2.279l-6.357,5.321-10.9-8.3,3.431-7.548a33.661,33.661,0,0,1-4.505-7.768l-8.247-.725-1.838-13.581,7.768-2.9a33.8,33.8,0,0,1,2.279-8.649l-5.321-6.344,8.3-10.9,7.548,3.431a33.665,33.665,0,0,1,7.768-4.506l.725-8.247L632.3,184.62l2.9,7.768Zm-4.065,18.734a14.708,14.708,0,1,0,14.76,11.251,14.708,14.708,0,0,0-14.76-11.251Z" transform="translate(91.021 -78.947)" fill="#c2c8cb" fill-rule="evenodd"/>
      <path id="Path_924" data-name="Path 924" d="M669.47,127.972a13.478,13.478,0,0,1,4.4-.233,17.711,17.711,0,0,1,10.785,5.023,17.906,17.906,0,0,1,4.441,7.069,18.126,18.126,0,0,1,.557,9.581,18.32,18.32,0,0,1-5.179,9.257,18.126,18.126,0,0,1-21.324,2.9,16.687,16.687,0,0,1-4.35-3.314,17.286,17.286,0,0,1-3.069-4.247,18.125,18.125,0,0,1-2.007-9.374,17.929,17.929,0,0,1,2.4-8,17.607,17.607,0,0,1,9.063-7.768,13.374,13.374,0,0,1,4.285-.945,42.48,42.48,0,0,0-4.143,1.295,17.75,17.75,0,0,0-8.584,7.768,17.359,17.359,0,0,0,6.888,23.706,17.311,17.311,0,0,0,20.508-27.422,17.608,17.608,0,0,0-10.357-5.179Q671.63,127.923,669.47,127.972Z" transform="translate(109.895 -95.734)" fill="#fff"/>
      <path id="Path_925" data-name="Path 925" d="M683.675,112.464a5.71,5.71,0,0,1-.246-.57l-.7-1.761c-.634-1.618-1.528-3.949-2.706-6.978l.181.117-16.391,2.318.22-.233c-.246,3.017-.531,6.37-.829,9.956v.181h-.168a40.483,40.483,0,0,0-9.231,5.425l-.168.129-.181-.091-9.063-4.117.44-.117-9.982,13.193v-.5l6.473,7.665.168.194-.1.233a40.134,40.134,0,0,0-2.706,10.358v.272l-.427.181-9.361,3.509.3-.479c.7,5.179,1.463,10.694,2.24,16.391l-.427-.414,9.956.867h.3l.117.272a39.91,39.91,0,0,0,5.373,9.205l.181.233-.129.272c-1.295,2.861-2.706,5.969-4.143,9.063l-.142-.6,13.167,10.008h-.634l7.665-6.473.233-.194.285.117a40.381,40.381,0,0,0,10.357,2.719h0l.414.324h0v.22l.116.3.22.6.44,1.178.867,2.343,1.748,4.674-.544-.324,16.4-2.227-.44.453q.44-5.036.88-9.956v-.3l.285-.117a40.681,40.681,0,0,0,9.205-5.36l.233-.194.272.129,9.063,4.156-.583.142,10.241-13.025v.583l-6.473-7.665-.181-.22.117-.259a40.615,40.615,0,0,0,2.732-10.358v-.259l.246-.1,9.373-3.483-.272.453c-.777-5.761-1.5-11.212-2.188-16.391l.35.324-9.956-.893h-.22l-.091-.194a40.283,40.283,0,0,0-5.36-9.257l-.117-.168.078-.181,4.182-9.063.091.363L701.7,108.981h.285l-7.7,6.383h-.168a42.728,42.728,0,0,0-7.768-2.408l-1.968-.375a3.093,3.093,0,0,1-.66-.129h.673a14.624,14.624,0,0,1,1.994.285A40.134,40.134,0,0,1,694.214,115h-.168l7.626-6.473.129-.117.155.117,13.206,9.956.194.155-.1.22-4.117,9.063v-.35a40.554,40.554,0,0,1,5.5,9.386l-.3-.22,9.956.842h.311v.3c.725,5.179,1.463,10.629,2.266,16.4v.324l-.311.13-9.361,3.509.285-.35a41.313,41.313,0,0,1-2.771,10.539l-.078-.466,6.473,7.665.246.285-.233.3-10.008,13.18-.233.311-.35-.168-9.063-4.143h.5a41.233,41.233,0,0,1-9.438,5.5l.311-.414c-.285,3.288-.583,6.6-.867,9.956v.4h-.4L677.1,203.248h-.414l-.129-.388-1.748-4.661-.88-2.356-.44-1.178-.22-.583-.117-.3v-.22h0l.414.324h0a41.728,41.728,0,0,1-10.552-2.784l.531-.091-7.678,6.473-.311.272-.466-.246-13.167-10.034-.324-.246.168-.363,4.156-9.063.065.5a41.172,41.172,0,0,1-5.489-9.438l.4.3-9.956-.893h-.388V167.9c-.777-5.7-1.515-11.251-2.214-16.4v-.363l.337-.129,9.361-3.483-.272.363a40.472,40.472,0,0,1,2.8-10.539v.427l-6.409-7.677-.207-.246.194-.246,10.06-13.154.168-.233.272.129,9.063,4.169h-.35a40.9,40.9,0,0,1,9.412-5.438l-.181.246c.324-3.586.634-6.94.919-9.956v-.207h.207L680.153,103h.13v.129l2.512,6.965.634,1.813A4.031,4.031,0,0,1,683.675,112.464Z" transform="translate(102.423 -103)" fill="#fff"/>
    </g>
    <g id="freepik--Screen--inject-18" transform="translate(191.408 84.213)">
      <rect id="Rectangle_614" data-name="Rectangle 614" width="595.61" height="411.738" transform="translate(0.285 0.272)" fill="#fafafa"/>
      <path id="Path_926" data-name="Path 926" d="M752.626,483.51c0-2.227-.1-161.254-.272-411.712l.272.272-595.558.078h0l.35-.337V483.523l-.311-.3,595.558.3-595.6.337h-.3V71.5H752.988v.272C752.781,322.256,752.626,481.27,752.626,483.51Z" transform="translate(-156.77 -71.5)" fill="#263238"/>
      <rect id="Rectangle_615" data-name="Rectangle 615" width="595.61" height="23.887" transform="translate(0.285 0.272)" fill="#4c5a61"/>
      <path id="Path_927" data-name="Path 927" d="M171.794,81.427a3.664,3.664,0,1,1-1.069-2.6,3.677,3.677,0,0,1,1.069,2.6Z" transform="translate(-154.51 -69.658)" fill="#fff"/>
      <path id="Path_928" data-name="Path 928" d="M182.014,81.427a3.664,3.664,0,1,1-1.069-2.6A3.677,3.677,0,0,1,182.014,81.427Z" transform="translate(-151.498 -69.658)" fill="#fff"/>
      <path id="Path_929" data-name="Path 929" d="M192.228,81.427a3.664,3.664,0,1,1-1.069-2.6,3.664,3.664,0,0,1,1.069,2.6Z" transform="translate(-148.48 -69.658)" fill="#fff"/>
      <path id="Path_930" data-name="Path 930" d="M725.818,400.268c0-1.5-.078-49.2-.207-133.742l.207.194-549.855.142h0l.35-.337V400.268l-.337-.337,549.894.337-549.946.324H175.6V266.19h.375l549.855.129h.194v.207C725.883,351.109,725.818,398.779,725.818,400.268Z" transform="translate(-151.221 -14.127)" fill="#e0e0e0"/>
      <path id="Path_931" data-name="Path 931" d="M442.736,300.462v-13.3c0-8.687,0-21.427-.065-37.714,0-32.574-.091-79.352-.142-136.2l.272.272-265.839.065h0l.337-.337V300.462l-.311-.3,191.731.142,54.61.091h.091l-54.545.078-192,.285h-.311V112.9H443.033v.272c-.065,56.966-.1,103.757-.142,136.37,0,16.261,0,28.988-.065,37.65v9.853C442.826,299.284,442.736,300.462,442.736,300.462Z" transform="translate(-150.938 -59.3)" fill="#e0e0e0"/>
      <path id="Path_932" data-name="Path 932" d="M199,249.223l19.148-27.745a12.274,12.274,0,0,1,17.219-3l2.693,1.929A12.261,12.261,0,0,0,256.8,214.4l9.3-27.188a12.274,12.274,0,0,1,23.214,0l4.493,13.167a12.274,12.274,0,0,0,22.825,1l3.884-8.8a12.274,12.274,0,0,1,21.337-1.955h0a12.261,12.261,0,0,0,21.725-2.952l4.35-12.727c4-11.652,20.819-10.8,23.563,1.295l16.637,73.021S199.583,248.666,199,249.223Z" transform="translate(-144.325 -43.458)" fill="#28857c"/>
      <path id="Path_934" data-name="Path 934" d="M198.59,243.2l15.536-45.521a11.989,11.989,0,0,1,22.579-.272l7.444,20.171a11.976,11.976,0,0,0,20.573,3.353l6.033-7.509a11.976,11.976,0,0,1,16.4-2.188l14.06,10.28a12,12,0,0,0,7.069,2.317h17.893a11.989,11.989,0,0,1,7.082,2.3l13.309,9.736a11.976,11.976,0,0,0,16.973-2.9L376.04,214.72c.155-.233.324-.466.492-.673,5.023-6.357,15.07-5.01,18.708,2.214l13.374,26.515S198.59,242.323,198.59,243.2Z" transform="translate(-144.446 -36.7)" fill="#41d9ca"/>
      <path id="Path_935" data-name="Path 935" d="M408.67,238.349,392.421,225.1c-22.308-16.391-32.872,14.824-50.4-8.6L335.986,209a11.989,11.989,0,0,0-16.417-2.162l-6.978,5.114a38.841,38.841,0,0,1-22.9,7.432h-9.141a11.99,11.99,0,0,0-7.07,2.306l-13.308,9.735c-5.464,4-9.27,4.531-18.009-2.809,0,0-9.49-7.7-9.71-7.975-4.648-5.671-14.371-5.658-18.553,0-1.01,1.359-2.059,2.589-3.2,3.884l-12.559,13.84S408.67,237.507,408.67,238.349Z" transform="translate(-144.579 -32.299)" fill="#95f7ed"/>
      <path id="Path_937" data-name="Path 937" d="M250.755,149.547c0,.181-7.444.337-16.624.337s-16.611-.155-16.611-.337,7.444-.337,16.611-.337S250.755,149.365,250.755,149.547Z" transform="translate(-138.867 -48.6)" fill="#263238"/>
      <rect id="Rectangle_616" data-name="Rectangle 616" width="5.684" height="5.684" transform="translate(69.344 98.099)" fill="#41d9ca"/>
      <path id="Path_938" data-name="Path 938" d="M299.162,149.547c0,.181-7.432.337-16.611.337s-16.611-.155-16.611-.337,7.432-.337,16.611-.337S299.162,149.365,299.162,149.547Z" transform="translate(-124.599 -48.6)" fill="#263238"/>
      <rect id="Rectangle_617" data-name="Rectangle 617" width="5.684" height="5.684" transform="translate(132.02 98.099)" fill="#41d9ca"/>
      <path id="Path_939" data-name="Path 939" d="M347.562,149.547c0,.181-7.432.337-16.611.337s-16.611-.155-16.611-.337,7.432-.337,16.611-.337S347.562,149.365,347.562,149.547Z" transform="translate(-110.335 -48.6)" fill="#263238"/>
      <rect id="Rectangle_618" data-name="Rectangle 618" width="5.684" height="5.684" transform="translate(194.709 98.099)" fill="#41d9ca"/>
      <path id="Path_940" data-name="Path 940" d="M340.66,372.889l13.685-19.524a4.907,4.907,0,0,1,6.965-1.1l7.2,5.438a4.907,4.907,0,0,0,7.2-1.463l20.715-35.967a4.894,4.894,0,0,1,8.118-.57l12.947,16.443a4.907,4.907,0,0,0,7.988-.4l9.464-14.9a4.92,4.92,0,0,1,8.441.155l7.768,13.555a4.894,4.894,0,0,0,8.377.181l26.748-41.922a4.907,4.907,0,0,1,8.208-.091l44.2,66.107a4.894,4.894,0,0,0,7.768.57L573.3,329.853a4.894,4.894,0,0,1,7.095-.168l21.362,21.427a4.907,4.907,0,0,0,7.768-1l38.206-66.185a4.894,4.894,0,0,1,9.141,2.46v86.472Z" transform="translate(-102.579 -9.624)" fill="#41d9ca" opacity="0.4"/>
      <path id="Path_941" data-name="Path 941" d="M655.781,361.956v-6.37l.078.091c-18.255.142-81.773.246-157.2.246s-138.972-.1-157.227-.246l.091-.091v5.994a1.954,1.954,0,0,1,0,.375,1.954,1.954,0,0,1,0-.375v-6.072h.091c18.255-.142,81.773-.259,157.227-.259s138.946.116,157.2.259h.091v6.072a1.142,1.142,0,0,1-.35.375Z" transform="translate(-102.352 12.119)" fill="#263238"/>
      <path id="Path_942" data-name="Path 942" d="M368.437,360.589c-.194,0-.337-.6-.337-1.295s.142-1.295.337-1.295.337.608.337,1.295S368.618,360.589,368.437,360.589Z" transform="translate(-94.493 12.929)" fill="#263238"/>
      <path id="Path_943" data-name="Path 943" d="M395.417,360.589c-.181,0-.337-.6-.337-1.295s.155-1.295.337-1.295.337.608.337,1.295S395.6,360.589,395.417,360.589Z" transform="translate(-86.542 12.929)" fill="#263238"/>
      <path id="Path_944" data-name="Path 944" d="M422.41,360.589c-.194,0-.35-.6-.35-1.295s.155-1.295.35-1.295.337.608.337,1.295S422.591,360.589,422.41,360.589Z" transform="translate(-78.591 12.929)" fill="#263238"/>
      <path id="Path_945" data-name="Path 945" d="M449.387,360.589c-.181,0-.337-.6-.337-1.295s.155-1.295.337-1.295.337.608.337,1.295S449.568,360.589,449.387,360.589Z" transform="translate(-70.638 12.929)" fill="#263238"/>
      <path id="Path_946" data-name="Path 946" d="M476.367,360.589c-.181,0-.337-.6-.337-1.295s.155-1.295.337-1.295.337.608.337,1.295S476.561,360.589,476.367,360.589Z" transform="translate(-62.687 12.929)" fill="#263238"/>
      <path id="Path_947" data-name="Path 947" d="M503.357,360.589c-.181,0-.337-.6-.337-1.295s.155-1.295.337-1.295.337.608.337,1.295S503.538,360.589,503.357,360.589Z" transform="translate(-54.733 12.929)" fill="#263238"/>
      <path id="Path_948" data-name="Path 948" d="M530.337,360.589c-.181,0-.337-.6-.337-1.295s.155-1.295.337-1.295.337.608.337,1.295S530.531,360.589,530.337,360.589Z" transform="translate(-46.782 12.929)" fill="#263238"/>
      <path id="Path_949" data-name="Path 949" d="M557.327,360.589c-.181,0-.337-.6-.337-1.295s.155-1.295.337-1.295.337.608.337,1.295S557.508,360.589,557.327,360.589Z" transform="translate(-38.829 12.929)" fill="#263238"/>
      <path id="Path_950" data-name="Path 950" d="M662.472,253.692V219.486c0-22.01-.078-53.7-.142-92.894l.246.246-265.839.091h0l.337-.337v127.1l-.324-.324,190.967.155,55.089.091h.1l-55.024.078-191.174.155H396.4V126.1h.363l265.839.091h.259v.246c-.065,39.255-.1,71.053-.142,93.037V251.31A9.855,9.855,0,0,1,662.472,253.692Z" transform="translate(-86.153 -55.41)" fill="#e0e0e0"/>
      <path id="Path_951" data-name="Path 951" d="M597.862,170.669H414.741a3.055,3.055,0,1,1,0-6.1H597.862a3.055,3.055,0,0,1,0,6.1Z" transform="translate(-81.707 -44.075)" fill="#e0e0e0"/>
      <path id="Path_952" data-name="Path 952" d="M597.862,152H414.741a3.055,3.055,0,1,1,0-6.1H597.862a3.055,3.055,0,0,1,0,6.1Z" transform="translate(-81.707 -49.576)" fill="#e0e0e0"/>
      <path id="Path_953" data-name="Path 953" d="M497.471,170.669H414.741a3.055,3.055,0,1,1,0-6.1h82.731a3.055,3.055,0,1,1,0,6.1Z" transform="translate(-81.707 -44.075)" fill="#28857c"/>
      <path id="Path_954" data-name="Path 954" d="M574.776,169.153h-1.295V170.9h-1v-1.748H568.6v-.712l3.638-4.661h1.1l-3.5,4.506h2.745v-1.554h.958v1.554h1.295Z" transform="translate(-35.407 -44.306)" fill="#263238"/>
      <path id="Path_955" data-name="Path 955" d="M578.882,168.768c0,1.295-.88,2.227-2.693,2.227a4.052,4.052,0,0,1-2.589-.867l.466-.8a3.237,3.237,0,0,0,2.136.764c1.075,0,1.683-.5,1.683-1.295s-.5-1.295-2.149-1.295h-1.618l.375-3.729h4.013v.893h-3.159l-.194,1.955h.79C578,166.657,578.882,167.512,578.882,168.768Z" transform="translate(-33.934 -44.309)" fill="#263238"/>
      <path id="Path_956" data-name="Path 956" d="M578.166,165.682a1.722,1.722,0,0,1,1.657-1.942c1,0,1.657.764,1.657,1.942a1.683,1.683,0,1,1-3.314,0Zm2.667,0c0-.855-.388-1.372-1.01-1.372s-.984.518-.984,1.372.375,1.295.984,1.295S580.833,166.536,580.833,165.682Zm3.288-1.89h.79l-4.868,7.121h-.79Zm-1.437,5.243a1.683,1.683,0,1,1,1.657,1.942,1.709,1.709,0,0,1-1.657-1.942Zm2.654,0c0-.842-.388-1.359-1-1.359s-1,.5-1,1.359.375,1.295,1,1.295,1-.453,1-1.295Z" transform="translate(-32.596 -44.318)" fill="#263238"/>
      <path id="Path_957" data-name="Path 957" d="M597.862,187.959H414.741a3.055,3.055,0,1,1,0-6.1H597.862a3.055,3.055,0,0,1,0,6.1Z" transform="translate(-81.707 -38.979)" fill="#e0e0e0"/>
      <path id="Path_958" data-name="Path 958" d="M524.389,187.962H414.871a2.887,2.887,0,0,1-3.25-3.043c0-1.7.971-3.055,2.162-3.055H523.314a3.172,3.172,0,0,1,3.5,3.055A3.043,3.043,0,0,1,524.389,187.962Z" transform="translate(-81.669 -38.982)" fill="#28857c"/>
      <path id="Path_959" data-name="Path 959" d="M573.813,181.07v.7l-2.874,6.473h-1.075l2.809-6.227h-3.25v1.295h-.984v-2.162Z" transform="translate(-35.454 -39.211)" fill="#263238"/>
      <path id="Path_960" data-name="Path 960" d="M573.13,184.648c0-2.317,1.295-3.638,2.9-3.638s2.9,1.295,2.9,3.638-1.295,3.651-2.9,3.651S573.13,186.966,573.13,184.648Zm4.79,0c0-1.813-.777-2.732-1.89-2.732s-1.89.919-1.89,2.732.777,2.745,1.89,2.745S577.92,186.474,577.92,184.648Z" transform="translate(-34.072 -39.228)" fill="#263238"/>
      <path id="Path_961" data-name="Path 961" d="M578.286,182.972a1.722,1.722,0,0,1,1.657-1.942c1,0,1.657.764,1.657,1.942a1.683,1.683,0,1,1-3.315,0Zm2.654,0c0-.854-.375-1.372-1-1.372s-1,.518-1,1.372.388,1.359,1,1.359S580.94,183.827,580.94,182.972Zm3.3-1.89h.777l-4.855,7.121h-.79Zm-1.437,5.243c0-1.165.66-1.942,1.644-1.942a1.968,1.968,0,0,1,0,3.884A1.726,1.726,0,0,1,582.8,186.325Zm2.654,0c0-.842-.388-1.359-1.01-1.359s-.984.5-.984,1.359.375,1.295.984,1.295S585.458,187.167,585.458,186.325Z" transform="translate(-32.56 -39.222)" fill="#263238"/>
      <path id="Path_962" data-name="Path 962" d="M597.862,204.839H414.741a3.055,3.055,0,1,1,0-6.1H597.862a3.055,3.055,0,0,1,0,6.1Z" transform="translate(-81.707 -34.005)" fill="#e0e0e0"/>
      <path id="Path_963" data-name="Path 963" d="M482.738,204.839h-68a3.055,3.055,0,1,1,0-6.1h68.023a3.055,3.055,0,1,1,0,6.1Z" transform="translate(-81.707 -34.005)" fill="#28857c"/>
      <path id="Path_964" data-name="Path 964" d="M573.642,202.92c0,1.23-.867,2.227-2.693,2.227a4.117,4.117,0,0,1-2.589-.867l.466-.8a3.263,3.263,0,0,0,2.136.764c1.088,0,1.7-.5,1.7-1.295s-.518-1.295-2.162-1.295h-1.618l.311-3.651h4.026v.893h-3.172l-.194,1.942h.8C572.814,200.771,573.642,201.664,573.642,202.92Z" transform="translate(-35.478 -34.222)" fill="#263238"/>
      <path id="Path_965" data-name="Path 965" d="M573.1,201.528c0-2.317,1.23-3.638,2.9-3.638s2.9,1.295,2.9,3.638-1.295,3.651-2.9,3.651S573.1,203.846,573.1,201.528Zm4.79,0c0-1.826-.777-2.732-1.89-2.732s-1.89.906-1.89,2.732.777,2.745,1.89,2.745S577.89,203.354,577.89,201.528Z" transform="translate(-34.081 -34.254)" fill="#263238"/>
      <path id="Path_966" data-name="Path 966" d="M578.253,199.84a1.683,1.683,0,1,1,1.657,1.942,1.735,1.735,0,0,1-1.657-1.942Zm2.589,0c0-.867-.375-1.372-1-1.372s-1,.518-1,1.372.388,1.359,1,1.359,1.062-.5,1.062-1.359Zm3.3-1.89h.777l-4.855,7.121h-.79Zm-1.372,5.243c0-1.165.66-1.942,1.644-1.942a1.968,1.968,0,1,1-1.644,1.942Zm2.589,0c0-.842-.388-1.359-1-1.359s-1,.5-1,1.359.375,1.359,1,1.359,1.049-.518,1.049-1.359Z" transform="translate(-32.566 -34.236)" fill="#263238"/>
      <path id="Path_967" data-name="Path 967" d="M535.963,152H414.741a3.055,3.055,0,1,1,0-6.1H535.989a3.055,3.055,0,1,1,0,6.1Z" transform="translate(-81.707 -49.576)" fill="#41d9ca"/>
      <path id="Path_968" data-name="Path 968" d="M574.1,150.087a2.3,2.3,0,0,1-2.512,2.253c-1.916,0-3-1.295-3-3.56s1.385-3.729,3.379-3.729a3.405,3.405,0,0,1,1.761.414l-.388.8a2.446,2.446,0,0,0-1.294-.337c-1.437,0-2.369.906-2.369,2.68a1.833,1.833,0,0,0,0,.259,2.37,2.37,0,0,1,2.046-.945,2.2,2.2,0,0,1,2.382,2.162Zm-.984,0c0-.829-.634-1.372-1.631-1.372a1.476,1.476,0,0,0-1.631,1.385c0,.725.6,1.372,1.683,1.372a1.411,1.411,0,0,0,1.58-1.308Z" transform="translate(-35.413 -49.826)" fill="#263238"/>
      <path id="Path_969" data-name="Path 969" d="M573.43,148.688c0-2.317,1.295-3.638,2.913-3.638s2.9,1.295,2.9,3.638-1.295,3.651-2.9,3.651S573.43,151.019,573.43,148.688Zm4.79,0c0-1.813-.764-2.732-1.877-2.732s-1.89.919-1.89,2.732.777,2.745,1.89,2.745S578.22,150.514,578.22,148.688Z" transform="translate(-33.984 -49.825)" fill="#263238"/>
      <path id="Path_970" data-name="Path 970" d="M578.593,147.012a1.722,1.722,0,0,1,1.657-1.942c.984,0,1.644.764,1.644,1.942s-.66,1.942-1.644,1.942a1.722,1.722,0,0,1-1.657-1.942Zm2.589,0c0-.854-.375-1.372-1-1.372s-1,.518-1,1.372.388,1.359,1,1.359,1.062-.5,1.062-1.359Zm3.3-1.89h.777l-4.868,7.121h-.777Zm-1.437,5.179c0-1.165.66-1.942,1.644-1.942a1.968,1.968,0,0,1,0,3.884c-.919.065-1.579-.712-1.579-1.877Zm2.589,0c0-.842-.388-1.295-1-1.295s-1,.5-1,1.295.375,1.359,1,1.359a1.138,1.138,0,0,0,1.113-1.295Z" transform="translate(-32.466 -49.82)" fill="#263238"/>
      <path id="Path_971" data-name="Path 971" d="M597.717,234.777c0,.194-44.822.337-100.106.337s-100.131-.142-100.131-.337,44.822-.337,100.131-.337S597.717,234.6,597.717,234.777Z" transform="translate(-85.835 -23.483)" fill="#e0e0e0"/>
      <path id="Path_972" data-name="Path 972" d="M597.717,243.947c0,.194-44.822.337-100.106.337s-100.131-.142-100.131-.337,44.822-.337,100.131-.337S597.717,243.765,597.717,243.947Z" transform="translate(-85.835 -20.781)" fill="#e0e0e0"/>
      <path id="Path_973" data-name="Path 973" d="M597.717,252.247c0,.181-44.822.337-100.106.337s-100.131-.155-100.131-.337,44.822-.337,100.131-.337S597.717,252.027,597.717,252.247Z" transform="translate(-85.835 -18.335)" fill="#e0e0e0"/>
      <path id="Path_974" data-name="Path 974" d="M204.939,363.107h0a3.612,3.612,0,0,1-3.6-3.6V291.989a3.6,3.6,0,0,1,3.6-3.6h0a3.586,3.586,0,0,1,3.6,3.6v67.518A3.6,3.6,0,0,1,204.939,363.107Z" transform="translate(-143.636 -7.584)" fill="#e0e0e0"/>
      <path id="Path_975" data-name="Path 975" d="M204.939,357.886h0a3.6,3.6,0,0,1-3.6-3.6V310.759a3.612,3.612,0,0,1,3.6-3.6h0a3.6,3.6,0,0,1,3.6,3.6v43.528a3.586,3.586,0,0,1-3.6,3.6Z" transform="translate(-143.636 -2.053)" fill="#41d9ca"/>
      <path id="Path_976" data-name="Path 976" d="M202.833,348.52v5.994h-.609v-5.451H200.8v-.544Z" transform="translate(-143.795 10.135)" fill="#263238"/>
      <path id="Path_977" data-name="Path 977" d="M203.48,351.535c0-1.916,1-3.055,2.4-3.055s2.4,1.139,2.4,3.055-1.01,3.043-2.4,3.043S203.48,353.439,203.48,351.535Zm4.156,0c0-1.605-.725-2.5-1.761-2.5s-1.774.893-1.774,2.5.725,2.486,1.774,2.486S207.636,353.128,207.636,351.535Z" transform="translate(-143.005 10.124)" fill="#263238"/>
      <path id="Path_978" data-name="Path 978" d="M216.049,363.107h0a3.612,3.612,0,0,1-3.6-3.6V291.989a3.6,3.6,0,0,1,3.6-3.6h0a3.586,3.586,0,0,1,3.6,3.6v67.518a3.6,3.6,0,0,1-3.6,3.6Z" transform="translate(-140.362 -7.584)" fill="#e0e0e0"/>
      <path id="Path_979" data-name="Path 979" d="M216.049,361.007h0a3.6,3.6,0,0,1-3.6-3.6V300.169a3.612,3.612,0,0,1,3.6-3.6h0a3.6,3.6,0,0,1,3.6,3.6v57.238a3.586,3.586,0,0,1-3.6,3.6Z" transform="translate(-140.362 -5.174)" fill="#41d9ca"/>
      <path id="Path_980" data-name="Path 980" d="M215.569,353.983v.544h-4.208v-.44l2.5-2.434c.673-.673.8-1.075.8-1.489,0-.686-.492-1.126-1.411-1.126a2.033,2.033,0,0,0-1.631.673l-.44-.375a2.706,2.706,0,0,1,2.123-.854c1.217,0,1.994.609,1.994,1.618a2.486,2.486,0,0,1-.984,1.877l-2.072,2.007Z" transform="translate(-140.736 10.123)" fill="#263238"/>
      <path id="Path_981" data-name="Path 981" d="M215.14,351.535c0-1.916,1-3.055,2.4-3.055s2.4,1.139,2.4,3.055-1.01,3.043-2.4,3.043S215.14,353.439,215.14,351.535Zm4.156,0c0-1.605-.725-2.5-1.761-2.5s-1.774.893-1.774,2.5.725,2.486,1.774,2.486S219.3,353.128,219.3,351.535Z" transform="translate(-139.569 10.124)" fill="#263238"/>
      <path id="Path_982" data-name="Path 982" d="M227.169,363.107h0a3.6,3.6,0,0,1-3.6-3.6V291.989a3.586,3.586,0,0,1,3.6-3.6h0a3.586,3.586,0,0,1,3.586,3.6v67.518a3.6,3.6,0,0,1-3.586,3.6Z" transform="translate(-137.085 -7.584)" fill="#e0e0e0"/>
      <path id="Path_983" data-name="Path 983" d="M227.169,355.546h0a3.586,3.586,0,0,1-3.6-3.6V318.7a3.6,3.6,0,0,1,3.6-3.6h0a3.6,3.6,0,0,1,3.586,3.6v33.248a3.586,3.586,0,0,1-3.586,3.6Z" transform="translate(-137.085 0.287)" fill="#41d9ca"/>
      <path id="Path_984" data-name="Path 984" d="M226.607,352.792c0,1.01-.725,1.774-2.175,1.774a3.146,3.146,0,0,1-2.162-.764l.3-.492a2.654,2.654,0,0,0,1.864.7c1,0,1.541-.466,1.541-1.217s-.5-1.191-1.618-1.191h-.427v-.453l1.67-2.084h-3.081v-.544H226.4v.427l-1.7,2.136C225.973,351.161,226.607,351.834,226.607,352.792Z" transform="translate(-137.468 10.135)" fill="#263238"/>
      <path id="Path_985" data-name="Path 985" d="M226.29,351.535c0-1.916,1-3.055,2.4-3.055s2.4,1.139,2.4,3.055-1.01,3.043-2.4,3.043S226.29,353.439,226.29,351.535Zm4.156,0c0-1.605-.725-2.5-1.761-2.5s-1.774.893-1.774,2.5.725,2.486,1.774,2.486S230.446,353.128,230.446,351.535Z" transform="translate(-136.283 10.124)" fill="#263238"/>
      <path id="Path_986" data-name="Path 986" d="M238.279,363.107h0a3.6,3.6,0,0,1-3.6-3.6V291.989a3.586,3.586,0,0,1,3.6-3.6h0a3.6,3.6,0,0,1,3.6,3.6v67.518A3.612,3.612,0,0,1,238.279,363.107Z" transform="translate(-133.811 -7.584)" fill="#e0e0e0"/>
      <path id="Path_987" data-name="Path 987" d="M238.279,361.007h0a3.586,3.586,0,0,1-3.6-3.6V300.169a3.6,3.6,0,0,1,3.6-3.6h0a3.612,3.612,0,0,1,3.6,3.6v57.238a3.6,3.6,0,0,1-3.6,3.6Z" transform="translate(-133.811 -5.174)" fill="#41d9ca"/>
      <path id="Path_988" data-name="Path 988" d="M238.665,352.935h-1.2v1.58h-.609v-1.58H233.46v-.44l3.185-3.975h.686l-3.068,3.884h2.589v-1.385h.6V352.4h1.2Z" transform="translate(-134.17 10.135)" fill="#263238"/>
      <path id="Path_989" data-name="Path 989" d="M237.91,351.535c0-1.916,1.01-3.055,2.4-3.055s2.408,1.139,2.408,3.055-1.023,3.043-2.408,3.043S237.91,353.439,237.91,351.535Zm4.169,0c0-1.605-.725-2.5-1.774-2.5s-1.761.893-1.761,2.5.712,2.486,1.761,2.486S242.079,353.128,242.079,351.535Z" transform="translate(-132.859 10.124)" fill="#263238"/>
      <path id="Path_990" data-name="Path 990" d="M249.389,363.107h0a3.6,3.6,0,0,1-3.6-3.6V291.989a3.586,3.586,0,0,1,3.6-3.6h0a3.6,3.6,0,0,1,3.6,3.6v67.518A3.612,3.612,0,0,1,249.389,363.107Z" transform="translate(-130.537 -7.584)" fill="#e0e0e0"/>
      <path id="Path_991" data-name="Path 991" d="M249.389,358.508h0a3.586,3.586,0,0,1-3.6-3.6V308.649a3.586,3.586,0,0,1,3.6-3.6h0a3.6,3.6,0,0,1,3.6,3.6v46.259a3.6,3.6,0,0,1-3.6,3.6Z" transform="translate(-130.537 -2.675)" fill="#41d9ca"/>
      <path id="Path_992" data-name="Path 992" d="M249.3,352.763c0,1.023-.712,1.813-2.175,1.813a3.094,3.094,0,0,1-2.149-.764l.3-.492a2.59,2.59,0,0,0,1.838.7c1.023,0,1.567-.505,1.567-1.23s-.479-1.295-2.007-1.295h-1.295l.311-3h3.288v.544H246.3l-.207,1.916h.764C248.618,350.989,249.3,351.74,249.3,352.763Z" transform="translate(-130.775 10.127)" fill="#263238"/>
      <path id="Path_993" data-name="Path 993" d="M248.92,351.535c0-1.916,1.01-3.055,2.4-3.055s2.4,1.139,2.4,3.055-1.01,3.043-2.4,3.043S248.92,353.439,248.92,351.535Zm4.156,0c0-1.605-.712-2.5-1.761-2.5s-1.774.893-1.774,2.5.725,2.486,1.774,2.486S253.076,353.128,253.076,351.535Z" transform="translate(-129.614 10.124)" fill="#263238"/>
      <path id="Path_994" data-name="Path 994" d="M260.5,363.107h0a3.6,3.6,0,0,1-3.6-3.6V291.989a3.586,3.586,0,0,1,3.6-3.6h0a3.6,3.6,0,0,1,3.6,3.6v67.518A3.612,3.612,0,0,1,260.5,363.107Z" transform="translate(-127.263 -7.584)" fill="#e0e0e0"/>
      <path id="Path_995" data-name="Path 995" d="M260.5,355.3h0a3.547,3.547,0,0,1-3.6-3.289V318.764a3.677,3.677,0,0,1,3.6-3.884h0a3.6,3.6,0,0,1,3.6,3.6v33.248a3.612,3.612,0,0,1-3.6,3.573Z" transform="translate(-127.264 0.222)" fill="#41d9ca"/>
      <path id="Path_996" data-name="Path 996" d="M260.348,352.74a1.877,1.877,0,0,1-2.059,1.838c-1.592,0-2.46-1.1-2.46-3s1.113-3.094,2.745-3.094A2.733,2.733,0,0,1,260,348.8l-.246.492a2.111,2.111,0,0,0-1.165-.285c-1.295,0-2.123.842-2.123,2.473a3.3,3.3,0,0,0,0,.479,1.9,1.9,0,0,1,1.826-1.023,1.826,1.826,0,0,1,2.059,1.8Zm-.621,0c0-.79-.583-1.295-1.5-1.295a1.385,1.385,0,0,0-1.541,1.295c0,.66.544,1.295,1.58,1.295a1.295,1.295,0,0,0,1.463-1.282Z" transform="translate(-127.578 10.123)" fill="#263238"/>
      <path id="Path_997" data-name="Path 997" d="M259.86,351.535c0-1.916,1.01-3.055,2.4-3.055s2.4,1.139,2.4,3.055-1.01,3.043-2.4,3.043S259.86,353.439,259.86,351.535Zm4.156,0c0-1.605-.712-2.5-1.761-2.5s-1.774.893-1.774,2.5.725,2.486,1.774,2.486,1.761-.893,1.761-2.486Z" transform="translate(-126.39 10.124)" fill="#263238"/>
      <path id="Path_998" data-name="Path 998" d="M271.609,363.107h0a3.612,3.612,0,0,1-3.6-3.6V291.989a3.6,3.6,0,0,1,3.6-3.6h0a3.586,3.586,0,0,1,3.6,3.6v67.518A3.6,3.6,0,0,1,271.609,363.107Z" transform="translate(-123.989 -7.584)" fill="#e0e0e0"/>
      <path id="Path_999" data-name="Path 999" d="M271.609,361.785h0a3.6,3.6,0,0,1-3.6-3.6V297.529a3.6,3.6,0,0,1,3.6-3.6h0a3.586,3.586,0,0,1,3.6,3.6v60.656a3.586,3.586,0,0,1-3.6,3.6Z" transform="translate(-123.989 -5.952)" fill="#41d9ca"/>
      <path id="Path_1000" data-name="Path 1000" d="M271.2,348.52v.427l-2.512,5.567h-.673l2.473-5.451H267.4v1.126h-.608v-1.67Z" transform="translate(-124.348 10.135)" fill="#263238"/>
      <path id="Path_1001" data-name="Path 1001" d="M270.69,351.535c0-1.916,1.01-3.055,2.4-3.055s2.4,1.139,2.4,3.055-1.01,3.043-2.4,3.043S270.69,353.439,270.69,351.535Zm4.156,0c0-1.605-.712-2.5-1.761-2.5s-1.761.893-1.761,2.5.712,2.486,1.761,2.486S274.846,353.128,274.846,351.535Z" transform="translate(-123.199 10.124)" fill="#263238"/>
      <path id="Path_1002" data-name="Path 1002" d="M282.719,363.107h0a3.612,3.612,0,0,1-3.6-3.6V291.989a3.6,3.6,0,0,1,3.6-3.6h0a3.586,3.586,0,0,1,3.6,3.6v67.518A3.6,3.6,0,0,1,282.719,363.107Z" transform="translate(-120.715 -7.584)" fill="#e0e0e0"/>
      <path id="Path_1003" data-name="Path 1003" d="M282.719,353.984h0a3.6,3.6,0,0,1-3.6-3.6V324a3.6,3.6,0,0,1,3.6-3.6h0a3.586,3.586,0,0,1,3.6,3.6v26.386a3.586,3.586,0,0,1-3.6,3.6Z" transform="translate(-120.715 1.849)" fill="#41d9ca"/>
      <path id="Path_1004" data-name="Path 1004" d="M282.408,352.85c0,1.062-.906,1.722-2.33,1.722s-2.318-.66-2.318-1.722a1.5,1.5,0,0,1,1.152-1.476,1.3,1.3,0,0,1-.932-1.295c0-.971.829-1.58,2.1-1.58s2.11.609,2.11,1.58a1.3,1.3,0,0,1-.958,1.295,1.515,1.515,0,0,1,1.178,1.476Zm-.634,0c0-.725-.634-1.191-1.7-1.191s-1.7.466-1.7,1.191.634,1.217,1.7,1.217,1.7-.479,1.7-1.23Zm-1.7-1.683c.932,0,1.489-.414,1.489-1.075s-.6-1.088-1.489-1.088-1.489.414-1.489,1.088.557,1.062,1.489,1.062Z" transform="translate(-121.115 10.13)" fill="#263238"/>
      <path id="Path_1005" data-name="Path 1005" d="M282,351.535c0-1.916,1-3.055,2.4-3.055s2.4,1.139,2.4,3.055-1.01,3.043-2.4,3.043S282,353.439,282,351.535Zm4.156,0c0-1.605-.725-2.5-1.761-2.5s-1.774.893-1.774,2.5.725,2.486,1.774,2.486,1.774-.893,1.774-2.486Z" transform="translate(-119.866 10.124)" fill="#263238"/>
      <path id="Path_1006" data-name="Path 1006" d="M293.819,363.107h0a3.612,3.612,0,0,1-3.6-3.6V291.989a3.6,3.6,0,0,1,3.6-3.6h0a3.586,3.586,0,0,1,3.6,3.6v67.518a3.6,3.6,0,0,1-3.6,3.6Z" transform="translate(-117.443 -7.584)" fill="#e0e0e0"/>
      <path id="Path_1007" data-name="Path 1007" d="M293.821,349.84h0a3.56,3.56,0,0,1-3.6-3.288v-9.257a3.677,3.677,0,0,1,3.6-3.884h0a3.586,3.586,0,0,1,3.6,3.6v9.257a3.6,3.6,0,0,1-3.6,3.573Z" transform="translate(-117.445 5.683)" fill="#41d9ca"/>
      <path id="Path_1008" data-name="Path 1008" d="M293.2,351.486c0,2.033-1.113,3.094-2.745,3.094a2.731,2.731,0,0,1-1.424-.324l.246-.492a2.1,2.1,0,0,0,1.165.272c1.295,0,2.123-.829,2.123-2.46a3.32,3.32,0,0,0,0-.479,1.9,1.9,0,0,1-1.825,1.023,1.825,1.825,0,0,1-2.033-1.8,1.877,1.877,0,0,1,2.059-1.838C292.335,348.482,293.2,349.582,293.2,351.486Zm-.855-1.2c0-.66-.544-1.295-1.579-1.295a1.295,1.295,0,0,0-1.476,1.295c0,.79.583,1.295,1.515,1.295a1.385,1.385,0,0,0,1.541-1.295Z" transform="translate(-117.888 10.122)" fill="#263238"/>
      <path id="Path_1009" data-name="Path 1009" d="M292.86,351.535c0-1.916,1.01-3.055,2.4-3.055s2.4,1.139,2.4,3.055-1.01,3.043-2.4,3.043S292.86,353.439,292.86,351.535Zm4.156,0c0-1.605-.712-2.5-1.761-2.5s-1.761.893-1.761,2.5.712,2.486,1.761,2.486,1.761-.893,1.761-2.486Z" transform="translate(-116.665 10.124)" fill="#263238"/>
      <path id="Path_1010" data-name="Path 1010" d="M304.936,363.107h0a3.6,3.6,0,0,1-3.586-3.6V291.989a3.586,3.586,0,0,1,3.586-3.6h0a3.586,3.586,0,0,1,3.6,3.6v67.518A3.6,3.6,0,0,1,304.936,363.107Z" transform="translate(-114.164 -7.584)" fill="#e0e0e0"/>
      <path id="Path_1011" data-name="Path 1011" d="M304.938,355.3h0a3.547,3.547,0,0,1-3.586-3.289V318.764a3.664,3.664,0,0,1,3.586-3.884h0a3.586,3.586,0,0,1,3.6,3.6v33.248a3.6,3.6,0,0,1-3.6,3.573Z" transform="translate(-114.165 0.222)" fill="#41d9ca"/>
      <path id="Path_1012" data-name="Path 1012" d="M300.6,348.52v5.994h-.608v-5.451H298.57v-.544Z" transform="translate(-114.983 10.135)" fill="#263238"/>
      <path id="Path_1013" data-name="Path 1013" d="M301.25,351.535c0-1.916,1-3.055,2.382-3.055s2.408,1.139,2.408,3.055-1.01,3.043-2.408,3.043S301.25,353.439,301.25,351.535Zm4.156,0c0-1.605-.725-2.5-1.774-2.5s-1.761.893-1.761,2.5.725,2.486,1.761,2.486S305.406,353.128,305.406,351.535Z" transform="translate(-114.193 10.124)" fill="#263238"/>
      <path id="Path_1014" data-name="Path 1014" d="M305.63,351.535c0-1.916,1-3.055,2.382-3.055s2.408,1.139,2.408,3.055-1.01,3.043-2.408,3.043S305.63,353.439,305.63,351.535Zm4.156,0c0-1.605-.725-2.5-1.774-2.5s-1.761.893-1.761,2.5.725,2.486,1.761,2.486S309.786,353.128,309.786,351.535Z" transform="translate(-112.902 10.124)" fill="#263238"/>
      <path id="Path_1015" data-name="Path 1015" d="M327.227,379.591c-.181,0-.337-22.217-.337-49.613s.155-49.638.337-49.638.337,22.217.337,49.638S327.408,379.591,327.227,379.591Z" transform="translate(-106.637 -9.957)" fill="#e0e0e0"/>
      <path id="Path_1016" data-name="Path 1016" d="M405.737,285.407c0,.194-13.7.337-30.594.337s-30.594-.142-30.594-.337,13.7-.337,30.594-.337S405.737,285.225,405.737,285.407Z" transform="translate(-101.433 -8.563)" fill="#263238"/>
    </g>
    <g id="freepik--magnifying-glass--inject-18" transform="translate(123.959 334.759)">
      <path id="Path_1018" data-name="Path 1018" d="M165.2,386.1a60.54,60.54,0,1,1,60.216-66.961h0A60.579,60.579,0,0,1,165.2,386.1Zm.142-112a53.45,53.45,0,0,0-5.567.3,51.282,51.282,0,1,0,5.567-.3Z" transform="translate(-104.673 -265.018)" fill="#455a64"/>
      <path id="Path_1019" data-name="Path 1019" d="M234.769,419.089a4.467,4.467,0,0,1-3.444-1.593l-57.238-67.156a4.532,4.532,0,0,1,6.9-5.878l57.225,67.195a4.518,4.518,0,0,1-3.444,7.47Z" transform="translate(-84.537 -242.076)" fill="#455a64"/>
    </g>
    <g id="freepik--Plant--inject-18" transform="translate(739.272 412.45)">
      <path id="Path_1020" data-name="Path 1020" d="M644.21,411.009c9.309,3.25,21.466.35,29.428-5.477s13.711-14.164,18.8-22.618c2.162-3.612,4.285-7.367,4.972-11.523s-.324-8.83-3.547-11.549c-5.01-4.208-12.688-2.072-18.372,1.165a63.323,63.323,0,0,0-31.28,50" transform="translate(-560.99 -315.455)" fill="#41d9ca"/>
      <path id="Path_1021" data-name="Path 1021" d="M651.93,419.417c5.593,7.38,15.213,10.668,24.47,11.1s18.385-2.123,27.033-5.438c3.146-1.2,6.577-2.861,7.652-6.046a7.665,7.665,0,0,0-1.644-7.121,15.847,15.847,0,0,0-6.24-4.26,42.583,42.583,0,0,0-27.188-1.463c-8.959,2.317-16.831,7.509-24.055,13.232" transform="translate(-558.714 -301.569)" fill="#41d9ca"/>
      <path id="Path_1022" data-name="Path 1022" d="M644.979,380.664c7.768.155,13.555-6.6,17.038-13.478a49.935,49.935,0,0,0,4.6-31.15c-.7-3.884-2.188-8.2-5.722-10.1s-8.247-.647-11.251,2.1-4.648,6.655-5.852,10.539c-4.143,13.4-3.25,28.794,1.191,42.09" transform="translate(-561.901 -325.025)" fill="#41d9ca"/>
      <path id="Path_1023" data-name="Path 1023" d="M627.362,419.99c13.154-22.385,15.342-49.768,7.574-74.535-1.295-4.014-3.638-8.61-7.768-8.882-4.661-.285-7.574,4.894-8.856,9.374-4.505,15.73-3.547,32.445-2.589,48.771.609,10.06,4.065,18.657,11.652,25.272" transform="translate(-569.621 -321.626)" fill="#41d9ca"/>
      <path id="Path_1024" data-name="Path 1024" d="M624.04,416.032a53.794,53.794,0,0,0-31.9-33.843c-3.5-1.295-7.937-2.059-10.539.609s-1.774,7-.129,10.28c2.589,5.282,6.939,9.529,11.225,13.607,3.884,3.7,7.937,7.419,12.869,9.581s13.97,2.706,18.475-.233" transform="translate(-579.932 -308.528)" fill="#41d9ca"/>
      <path id="Path_1025" data-name="Path 1025" d="M690.683,363.65a1.6,1.6,0,0,1-.233.207l-.7.544-2.758,2.059-2.007,1.528c-.712.557-1.463,1.2-2.292,1.877-1.618,1.295-3.547,2.822-5.49,4.661l-3.094,2.81c-1.075,1-2.11,2.1-3.224,3.211-2.266,2.175-4.454,4.713-6.81,7.328a160.135,160.135,0,0,0-13.555,18.488,157.743,157.743,0,0,0-10.474,20.4c-1.295,3.276-2.589,6.37-3.521,9.374-.492,1.489-1.023,2.913-1.424,4.311s-.777,2.745-1.139,4.026c-.777,2.589-1.295,4.933-1.709,7-.233,1.036-.479,1.994-.647,2.874l-.427,2.46c-.259,1.424-.466,2.589-.608,3.379l-.181.88a1.027,1.027,0,0,1-.078.3,1.414,1.414,0,0,1,0-.311c0-.233.078-.518.117-.88.117-.829.285-1.968.492-3.418.117-.738.246-1.567.375-2.46s.388-1.851.6-2.9c.466-2.071.88-4.467,1.644-7.03.35-1.295.712-2.589,1.1-4.065s.906-2.835,1.385-4.337c.919-3.017,2.2-6.124,3.483-9.425a141.317,141.317,0,0,1,24.146-39.139c2.369-2.589,4.583-5.179,6.875-7.328,1.126-1.1,2.175-2.214,3.263-3.185s2.136-1.916,3.133-2.8c1.955-1.838,3.884-3.276,5.567-4.609.829-.66,1.592-1.295,2.318-1.838l2.046-1.437,2.822-1.968.751-.492A2.041,2.041,0,0,1,690.683,363.65Z" transform="translate(-565.088 -313.644)" fill="#fafafa"/>
      <path id="Path_1026" data-name="Path 1026" d="M707.98,412.135a7.875,7.875,0,0,1-.906-.155c-.583-.1-1.437-.337-2.589-.518a70.6,70.6,0,0,0-71.817,29.881c-.66.919-1.1,1.683-1.437,2.175a3.886,3.886,0,0,1-.531.751,6.145,6.145,0,0,1,.427-.816c.311-.5.712-1.295,1.295-2.24a62.389,62.389,0,0,1,5.748-7.768,68.347,68.347,0,0,1,56.759-23.615,63.185,63.185,0,0,1,9.542,1.372c1.126.22,1.968.479,2.589.634A4.141,4.141,0,0,1,707.98,412.135Z" transform="translate(-564.971 -300.087)" fill="#fafafa"/>
      <path id="Path_1027" data-name="Path 1027" d="M659.521,332.64a.958.958,0,0,1,0,.337,5.834,5.834,0,0,1-.207,1.01c-.207.919-.492,2.214-.867,3.884-.751,3.34-1.9,8.169-3.366,14.125-2.887,11.911-7.108,28.315-11.484,46.492-2.188,9.063-4.156,17.789-5.852,25.7s-3.094,15.1-4.156,21.129c-.57,3-1,5.748-1.4,8.144s-.725,4.48-.984,6.176-.453,2.952-.6,3.884c-.078.414-.129.751-.181,1.01a1.1,1.1,0,0,1-.078.337,1.779,1.779,0,0,1,0-.35,3.608,3.608,0,0,1,.117-1.023c.117-.932.285-2.24.492-3.884s.492-3.781.88-6.189.764-5.179,1.295-8.169c1-6.046,2.382-13.219,4.026-21.168s3.625-16.624,5.8-25.726c4.389-18.19,8.661-34.581,11.652-46.466,1.489-5.9,2.693-10.707,3.547-14.073.414-1.618.751-2.9.984-3.819.1-.414.194-.738.259-1S659.508,332.627,659.521,332.64Z" transform="translate(-565.076 -322.782)" fill="#fafafa"/>
      <path id="Path_1028" data-name="Path 1028" d="M631.63,458.079a1.036,1.036,0,0,1-.091-.272,4.448,4.448,0,0,0-.181-.8c-.155-.764-.375-1.8-.647-3.12-.557-2.706-1.295-6.629-2.136-11.5-1.683-9.736-3.69-23.3-4.92-38.3-.6-7.522-.919-14.708-1.062-21.246s0-12.429.142-17.362c0-2.473.233-4.7.337-6.668s.233-3.638.363-5.023.22-2.382.3-3.159a2.253,2.253,0,0,1,.091-.829.143.143,0,1,1,.065,0v.816c0,.79-.091,1.838-.168,3.185s-.194,3.055-.259,5.023-.207,4.182-.246,6.655c-.142,4.933-.155,10.811,0,17.336s.518,13.7,1.113,21.207c1.295,15.005,3.159,28.483,4.726,38.271.79,4.881,1.463,8.817,1.955,11.536.22,1.295.4,2.369.531,3.133a5.327,5.327,0,0,0,.117.816A.955.955,0,0,1,631.63,458.079Z" transform="translate(-567.377 -317.806)" fill="#fafafa"/>
      <path id="Path_1029" data-name="Path 1029" d="M642.372,449.556a3.582,3.582,0,0,1-.337-.777c-.22-.57-.518-1.295-.867-2.253-.194-.492-.4-1.036-.621-1.618L639.7,443c-.311-.673-.621-1.4-.971-2.162s-.777-1.554-1.191-2.4l-1.295-2.589-1.592-2.745c-1.062-1.929-2.421-3.884-3.742-5.943a141.441,141.441,0,0,0-9.9-12.662,156.758,156.758,0,0,0-11.367-11.367c-1.89-1.592-3.625-3.2-5.373-4.531l-2.486-1.981-2.369-1.748c-1.489-1.126-2.887-2.072-4.13-2.9s-2.279-1.554-3.185-2.084l-2.033-1.295a3.137,3.137,0,0,1-.686-.492,7.6,7.6,0,0,1,.751.375l2.1,1.2c.919.5,2.007,1.178,3.25,2.007s2.68,1.722,4.195,2.835l2.4,1.722,2.589,1.955c1.774,1.295,3.522,2.913,5.425,4.505a145.636,145.636,0,0,1,11.458,11.393,135.706,135.706,0,0,1,9.9,12.74c1.295,2.11,2.667,4.052,3.716,6.007.544.958,1.062,1.877,1.58,2.771l1.295,2.589c.4.854.842,1.631,1.165,2.421l.919,2.2.8,1.916c.207.6.4,1.152.57,1.657l.764,2.292a3.453,3.453,0,0,1,.117.854Z" transform="translate(-577.147 -306.435)" fill="#fafafa"/>
      <path id="Path_1030" data-name="Path 1030" d="M679.476,383.744c0,.091-1.592.091-4.143.233a77.674,77.674,0,0,0-9.93,1.2,78.959,78.959,0,0,0-9.685,2.525A39.854,39.854,0,0,1,651.77,389a4.358,4.358,0,0,1,.984-.531c.66-.311,1.618-.725,2.823-1.178a58.908,58.908,0,0,1,19.8-3.742h3.055a3.977,3.977,0,0,1,1.049.194Z" transform="translate(-558.762 -307.779)" fill="#fafafa"/>
      <path id="Path_1031" data-name="Path 1031" d="M683.84,424.344a38.658,38.658,0,0,0-5.412-8.156,37.963,37.963,0,0,0-7.768-6.007,9.462,9.462,0,0,1,2.667,1.178,23.589,23.589,0,0,1,9.5,10.241,9.442,9.442,0,0,1,1.01,2.745Z" transform="translate(-553.195 -299.931)" fill="#fafafa"/>
      <path id="Path_1032" data-name="Path 1032" d="M656.9,346.67c.129.129-2.3,2.589-4.946,5.787s-4.518,6.1-4.674,5.994a27.613,27.613,0,0,1,4.195-6.4,27,27,0,0,1,5.425-5.386Z" transform="translate(-560.085 -318.647)" fill="#fafafa"/>
      <path id="Path_1033" data-name="Path 1033" d="M648.57,336.07a45.067,45.067,0,0,1,1.787,10.487,23.3,23.3,0,0,1-1.191-5.179,22.662,22.662,0,0,1-.6-5.308Z" transform="translate(-559.705 -321.771)" fill="#fafafa"/>
      <path id="Path_1034" data-name="Path 1034" d="M631.447,369.33a129.8,129.8,0,0,1-8.247,15.912,127.358,127.358,0,0,1,8.247-15.912Z" transform="translate(-567.181 -311.969)" fill="#fafafa"/>
      <path id="Path_1035" data-name="Path 1035" d="M618.26,358a71.875,71.875,0,0,1,5.968,11.989,38.587,38.587,0,0,1-3.263-5.852A36.6,36.6,0,0,1,618.26,358Z" transform="translate(-568.637 -315.308)" fill="#fafafa"/>
      <path id="Path_1036" data-name="Path 1036" d="M604.333,396.945c0,.181-2.589-.337-5.9-.557s-5.9-.1-5.93-.285a17.308,17.308,0,0,1,5.968-.337,16.971,16.971,0,0,1,5.865,1.178Z" transform="translate(-576.228 -304.214)" fill="#fafafa"/>
      <path id="Path_1037" data-name="Path 1037" d="M613,430.78l7.328,38.5a5.386,5.386,0,0,0,5.3,4.389h21.634a5.4,5.4,0,0,0,5.321-4.519l6.357-38.375Z" transform="translate(-570.187 -293.861)" fill="#28857c"/>
      <path id="Path_1038" data-name="Path 1038" d="M615.372,443.3h41.352l2.2-12.507H612.99Z" transform="translate(-570.19 -293.858)" fill="#455a64"/>
      <path id="Path_1039" data-name="Path 1039" d="M614.83,440.45l.867,4.557h39.864l.622-4.557Z" transform="translate(-569.648 -291.011)" fill="#fafafa"/>
    </g>
    <g id="freepik--Character--inject-18" transform="translate(450.375 146.373)">
      <path id="Path_1040" data-name="Path 1040" d="M514.964,435.54l.647,23.538s24.146,7.237,24.69,11.575l-45.586,2.913-2.525-36.627Z" transform="translate(-316.892 -26.381)" fill="#28857c"/>
      <path id="Path_1041" data-name="Path 1041" d="M499.575,452.906a1.864,1.864,0,0,0-1.152,2.2,1.787,1.787,0,0,0,2.175,1.165,1.968,1.968,0,0,0,1.2-2.343,1.864,1.864,0,0,0-2.4-.958" transform="translate(-315.072 -21.284)" fill="#e0e0e0"/>
      <g id="Group_593" data-name="Group 593" transform="translate(177.706 442.07)" opacity="0.6">
        <path id="Path_1042" data-name="Path 1042" d="M494.167,466.074l-.117-3.7,43.761-1.411s2.084.764,1.942,2.2Z" transform="translate(-494.05 -460.96)" fill="#fff"/>
      </g>
      <path id="Path_1043" data-name="Path 1043" d="M511.753,453.548c0,.22-1.1.388-2.149,1.178s-1.567,1.761-1.787,1.683,0-1.385,1.295-2.317S511.792,453.341,511.753,453.548Z" transform="translate(-312.309 -21.123)" fill="#263238"/>
      <path id="Path_1044" data-name="Path 1044" d="M515.276,454.817c0,.207-.867.647-1.567,1.644s-.854,1.994-1.075,1.994-.44-1.295.44-2.46S515.263,454.6,515.276,454.817Z" transform="translate(-310.925 -20.722)" fill="#263238"/>
      <path id="Path_1045" data-name="Path 1045" d="M517.075,459.978c-.194.065-.583-1.023-.091-2.279s1.515-1.813,1.618-1.631-.5.867-.893,1.9S517.308,459.952,517.075,459.978Z" transform="translate(-309.656 -20.342)" fill="#263238"/>
      <path id="Path_1046" data-name="Path 1046" d="M511.345,449.535c-.091.207-1.126,0-2.382.129s-2.2.621-2.33.44.764-1.036,2.24-1.217S511.436,449.34,511.345,449.535Z" transform="translate(-312.639 -22.457)" fill="#263238"/>
      <path id="Path_1047" data-name="Path 1047" d="M511.716,446.469a4.339,4.339,0,0,1-2.292.129,10.093,10.093,0,0,1-2.434-.583,10.261,10.261,0,0,1-1.359-.609,2.953,2.953,0,0,1-.712-.492.971.971,0,0,1-.181-1.178,1.2,1.2,0,0,1,.945-.57,2.936,2.936,0,0,1,.854,0,7.9,7.9,0,0,1,1.45.4,7.768,7.768,0,0,1,2.2,1.295c1.113.906,1.528,1.722,1.463,1.761s-.66-.583-1.787-1.295a9.425,9.425,0,0,0-2.162-1.075,8.371,8.371,0,0,0-1.295-.324c-.492-.1-.906-.078-1.01.142s0,.13,0,.259a2.47,2.47,0,0,0,.531.362,12.165,12.165,0,0,0,1.295.608,11.65,11.65,0,0,0,2.266.7,17.052,17.052,0,0,1,2.227.466Z" transform="translate(-313.23 -24.142)" fill="#263238"/>
      <path id="Path_1048" data-name="Path 1048" d="M510.071,447.686a3.639,3.639,0,0,1-.751-2.162,7.533,7.533,0,0,1,.155-2.525,8.09,8.09,0,0,1,.492-1.424,1.916,1.916,0,0,1,1.385-1.295,1.075,1.075,0,0,1,1,.57,3.16,3.16,0,0,1,.285.829,5.179,5.179,0,0,1,.1,1.541,5.362,5.362,0,0,1-.829,2.421c-.816,1.23-1.722,1.554-1.748,1.489a10.563,10.563,0,0,0,1.295-1.774,4.971,4.971,0,0,0,.466-3.509c-.1-.479-.311-.855-.492-.79a1.708,1.708,0,0,0-.751.79,7.365,7.365,0,0,0-.479,1.295,8.1,8.1,0,0,0-.3,2.3C509.9,446.793,510.213,447.608,510.071,447.686Z" transform="translate(-311.857 -24.984)" fill="#263238"/>
      <path id="Path_1049" data-name="Path 1049" d="M438,434.75l-2.745,30.231-9.063,23.3a3.12,3.12,0,0,0,1.981,4.1h0a3.1,3.1,0,0,0,2.8-.492c5.114-3.884,23.822-18.294,23.9-20.521.091-2.589,5.01-31.707,5.01-31.707Z" transform="translate(-336.404 -26.614)" fill="#28857c"/>
      <g id="Group_594" data-name="Group 594" transform="translate(91.752 442.717)" opacity="0.6">
        <path id="Path_1050" data-name="Path 1050" d="M427.66,484.506l26.93-23.046-.142,1.295a4.7,4.7,0,0,1-1.45,2.887c-2.175,2.033-8.286,7.509-22.45,18.4a3.082,3.082,0,0,1-2.887.479Z" transform="translate(-427.66 -461.46)" fill="#fff"/>
      </g>
      <g id="Group_595" data-name="Group 595" transform="translate(112.653 432.074)" opacity="0.6">
        <path id="Path_1051" data-name="Path 1051" d="M444.744,453.447a1.9,1.9,0,0,0-.79,2.382,1.813,1.813,0,0,0,2.356.8,1.981,1.981,0,0,0,.829-2.525,1.864,1.864,0,0,0-2.589-.57" transform="translate(-443.804 -453.239)" fill="#fff"/>
      </g>
      <path id="Path_1052" data-name="Path 1052" d="M435.454,470.576c-.181.065-.673-1.592-2.382-2.589a9.659,9.659,0,0,0-3.392-1.062c0-.078.388-.272,1.113-.285a4.8,4.8,0,0,1,2.589.79,4.933,4.933,0,0,1,1.826,2.071C435.532,470.11,435.532,470.563,435.454,470.576Z" transform="translate(-335.313 -17.216)" fill="#263238"/>
      <path id="Path_1053" data-name="Path 1053" d="M433.368,473.226c-.168.1-1.023-.984-2.525-1.605a21.714,21.714,0,0,0-2.913-.712A3.444,3.444,0,0,1,431.1,471C432.811,471.724,433.523,473.161,433.368,473.226Z" transform="translate(-335.829 -16.059)" fill="#263238"/>
      <path id="Path_1054" data-name="Path 1054" d="M439.532,466.982a32.983,32.983,0,0,0-3.729-2.745,30.336,30.336,0,0,0-4.363-1.541,8.493,8.493,0,0,1,8.092,4.285Z" transform="translate(-334.794 -18.387)" fill="#263238"/>
      <path id="Path_1055" data-name="Path 1055" d="M440.709,459.4c-.091.168-1.683-.712-3.884-1.036s-3.884,0-3.975-.194a7.768,7.768,0,0,1,7.768,1.23Z" transform="translate(-334.379 -19.87)" fill="#263238"/>
      <path id="Path_1056" data-name="Path 1056" d="M441.562,452.576a15.3,15.3,0,0,0-3.975-1.191,15.145,15.145,0,0,0-4.117.557c0-.078.337-.414,1.075-.738a6.8,6.8,0,0,1,6.072.479C441.3,452.123,441.614,452.511,441.562,452.576Z" transform="translate(-334.196 -21.912)" fill="#263238"/>
      <path id="Path_1057" data-name="Path 1057" d="M437.821,451.213a2.589,2.589,0,0,1,.091-1.152,7.769,7.769,0,0,1,1.295-2.887,3.561,3.561,0,0,1,1.7-1.5,1.3,1.3,0,0,1,1.372.44,2.046,2.046,0,0,1,.324,1.411,4.389,4.389,0,0,1-4.285,3.6,5.088,5.088,0,0,1-4.687-3.211,1.8,1.8,0,0,1,.091-1.476,1.217,1.217,0,0,1,1.295-.492,4.311,4.311,0,0,1,1.864,1.295,9.064,9.064,0,0,1,1.8,2.59,2.691,2.691,0,0,1,.337,1.1,13.246,13.246,0,0,0-2.46-3.34,4.183,4.183,0,0,0-1.657-1.062.673.673,0,0,0-.738.272,1.3,1.3,0,0,0,0,.971,4.544,4.544,0,0,0,4.091,2.745,3.884,3.884,0,0,0,3.664-3.107,1.579,1.579,0,0,0-.181-1.01.712.712,0,0,0-.764-.246,3.159,3.159,0,0,0-1.45,1.295,11.522,11.522,0,0,0-1.7,3.768Z" transform="translate(-334.184 -23.41)" fill="#263238"/>
      <path id="Path_1058" data-name="Path 1058" d="M430.35,267.879l-1.8,235.815,33.17,2.123L468.7,308.83,508.445,504.7l30.14-3.172L506.516,267.84Z" transform="translate(-335.646 -75.801)" fill="#1d4340"/>
      <path id="Path_1059" data-name="Path 1059" d="M466.232,120.014a20.081,20.081,0,0,0-21.621,18.812c-.557,9.335-1.075,19.42-1.01,24.521.129,10.914,11.057,12.61,11.057,12.61s-.272,3.237-.57,7.25a14.384,14.384,0,0,0,13.672,15.446h0a14.384,14.384,0,0,0,15.018-13.724l1.981-44.02A20.094,20.094,0,0,0,466.232,120.014Z" transform="translate(-331.212 -119.382)" fill="#b78876"/>
      <path id="Path_1060" data-name="Path 1060" d="M452.12,164a25.441,25.441,0,0,0,14.242-4.052s-3.366,7.859-14.242,6.875Z" transform="translate(-328.7 -107.595)" fill="#aa6550"/>
      <path id="Path_1061" data-name="Path 1061" d="M474.707,139.138c.194-.078,7.509-2.214,7.263,5.243s-7.677,5.684-7.69,5.477S474.707,139.138,474.707,139.138Z" transform="translate(-322.17 -113.829)" fill="#b78876"/>
      <path id="Path_1062" data-name="Path 1062" d="M476.112,146.557a3.64,3.64,0,0,0,.35.207,1.3,1.3,0,0,0,.971,0,3.224,3.224,0,0,0,1.579-2.848,4.352,4.352,0,0,0-.3-1.864,1.554,1.554,0,0,0-.945-1.036.673.673,0,0,0-.79.337c-.1.207,0,.35-.1.363s-.155-.129-.078-.44a.8.8,0,0,1,.311-.453.958.958,0,0,1,.725-.168,1.851,1.851,0,0,1,1.295,1.2,4.4,4.4,0,0,1,.376,2.1,3.366,3.366,0,0,1-1.994,3.159,1.437,1.437,0,0,1-1.191-.233C476.125,146.738,476.086,146.57,476.112,146.557Z" transform="translate(-321.632 -113.286)" fill="#aa6550"/>
      <path id="Path_1063" data-name="Path 1063" d="M446.52,140.2a1.566,1.566,0,0,0,1.5,1.58,1.489,1.489,0,0,0,1.605-1.411,1.541,1.541,0,0,0-1.5-1.567,1.489,1.489,0,0,0-1.605,1.4Z" transform="translate(-330.35 -113.829)" fill="#263238"/>
      <path id="Path_1064" data-name="Path 1064" d="M446.555,137.9c.194.194,1.372-.673,3.055-.673s2.913.842,3.094.634-.117-.453-.647-.842a4.311,4.311,0,0,0-2.473-.764,4.026,4.026,0,0,0-2.434.79C446.633,137.438,446.465,137.814,446.555,137.9Z" transform="translate(-330.347 -114.576)" fill="#263238"/>
      <path id="Path_1065" data-name="Path 1065" d="M459.26,140.2a1.554,1.554,0,0,0,1.5,1.58,1.489,1.489,0,0,0,1.605-1.411,1.554,1.554,0,0,0-1.5-1.567,1.489,1.489,0,0,0-1.605,1.4Z" transform="translate(-326.596 -113.829)" fill="#263238"/>
      <path id="Path_1066" data-name="Path 1066" d="M459.3,138.144c.194.194,1.372-.673,3.055-.673s2.9.842,3.081.647-.1-.466-.634-.855a4.351,4.351,0,0,0-2.473-.764,4.117,4.117,0,0,0-2.434.79C459.373,137.678,459.2,138.054,459.3,138.144Z" transform="translate(-326.593 -114.505)" fill="#263238"/>
      <path id="Path_1067" data-name="Path 1067" d="M455.553,150.569a10.357,10.357,0,0,0-2.732-.492c-.427,0-.829-.129-.906-.427a2.279,2.279,0,0,1,.285-1.295l1.295-3.263a57.309,57.309,0,0,0,2.848-8.532,55.952,55.952,0,0,0-3.522,8.286l-1.217,3.276a2.447,2.447,0,0,0-.22,1.683,1.087,1.087,0,0,0,.7.634,3.158,3.158,0,0,0,.725.091A11.651,11.651,0,0,0,455.553,150.569Z" transform="translate(-328.935 -114.488)" fill="#263238"/>
      <path id="Path_1068" data-name="Path 1068" d="M459.617,148.27c-.272,0-.272,1.813-1.839,3.107s-3.5,1.088-3.509,1.295.44.35,1.295.375a4.532,4.532,0,0,0,2.926-1.023,3.962,3.962,0,0,0,1.424-2.589C459.941,148.71,459.747,148.257,459.617,148.27Z" transform="translate(-328.067 -111.037)" fill="#263238"/>
      <path id="Path_1069" data-name="Path 1069" d="M459.006,132.977c.155.453,1.838.233,3.806.479s3.56.777,3.884.363c.116-.194-.168-.621-.8-1.062a6.383,6.383,0,0,0-2.835-1,6.473,6.473,0,0,0-2.978.35C459.239,132.407,458.876,132.757,459.006,132.977Z" transform="translate(-326.679 -115.915)" fill="#263238"/>
      <path id="Path_1070" data-name="Path 1070" d="M447.006,134.167c.3.375,1.45,0,2.835,0s2.589.259,2.835-.142c.129-.194-.065-.57-.57-.932a3.884,3.884,0,0,0-2.317-.621,3.962,3.962,0,0,0-2.266.764C447.07,133.585,446.915,133.973,447.006,134.167Z" transform="translate(-330.215 -115.694)" fill="#263238"/>
      <path id="Path_1071" data-name="Path 1071" d="M482.587,144.484a12.249,12.249,0,0,1-.181,3.573,3.884,3.884,0,0,1-1.9,2.732c-1.877.932-4.234-.5-5.075-2.421a12.52,12.52,0,0,1-.414-6.2,29.989,29.989,0,0,0-.13-8.545,12.261,12.261,0,0,0-4.091-7.315,7.768,7.768,0,0,0-8.04-1.165,43.223,43.223,0,0,0-4.247,3.133,6.577,6.577,0,0,1-4.518,1.139,4.234,4.234,0,0,1-3.457-2.887,4.583,4.583,0,0,1,1.761-4.57,10.486,10.486,0,0,1,4.764-1.916,25.609,25.609,0,0,1,14.164,1.1,18.475,18.475,0,0,1,10.28,9.568c2.175,5.1,1.89,8.221,1.295,13.776" transform="translate(-329.195 -119.512)" fill="#263238"/>
      <path id="Path_1072" data-name="Path 1072" d="M358.149,183l15.912,3.211L395.9,200.09l-7.457,14.242s-7.7-2.149-9.943-4.143a9.063,9.063,0,0,0-4.739-2.2s.142,3.509-2.512,2.9-7.121-1.359-6.357-5.179a2.887,2.887,0,0,1-1.877-3.159s-2.2-.168-1.605-3.806,3.224-8.351,10.487-7.017c.375.078.88-.647.22-.893l-11.173-2.654S353.915,185.447,358.149,183Z" transform="translate(-356.792 -100.802)" fill="#b78876"/>
      <path id="Path_1073" data-name="Path 1073" d="M364.647,195.06a11.33,11.33,0,0,1,2.667.647,24.083,24.083,0,0,1,2.848.971,2.4,2.4,0,0,1,1.295,1.476,1.981,1.981,0,0,1-.764,1.994,4.713,4.713,0,0,1-3.755.492,24.706,24.706,0,0,1-2.939-.608,8,8,0,0,1-2.589-1.023,21.213,21.213,0,0,1,2.667.557c.816.168,1.8.324,2.9.453a9.283,9.283,0,0,0,1.683.117,2.732,2.732,0,0,0,1.567-.518,1.3,1.3,0,0,0,.544-1.295,1.813,1.813,0,0,0-.945-1.087c-.919-.466-1.942-.751-2.706-1.062a12.107,12.107,0,0,1-2.473-1.113Z" transform="translate(-355.432 -97.248)" fill="#aa6550"/>
      <path id="Path_1074" data-name="Path 1074" d="M367.713,193.519c0,.194-.971.22-1.9.816s-1.385,1.424-1.567,1.359,0-1.2,1.2-1.929S367.83,193.338,367.713,193.519Z" transform="translate(-354.614 -97.766)" fill="#aa6550"/>
      <path id="Path_1075" data-name="Path 1075" d="M369.714,198.86a.556.556,0,0,1,.363.207,2.394,2.394,0,0,1,.35,1.088,2.1,2.1,0,0,1-.466,1.7,2.175,2.175,0,0,1-2.059.609,24.328,24.328,0,0,1-3.5-.7c-.88-.285-1.359-.6-1.295-.686s.57.065,1.437.22,2.11.3,3.457.492a1.605,1.605,0,0,0,1.515-.35,1.748,1.748,0,0,0,.453-1.295,2.581,2.581,0,0,0-.091-.971C369.792,198.977,369.675,198.886,369.714,198.86Z" transform="translate(-354.932 -96.128)" fill="#aa6550"/>
      <path id="Path_1076" data-name="Path 1076" d="M368.11,201.153c0-.078.3-.22.777-.091a2.952,2.952,0,0,1,1.424,1.139,2.072,2.072,0,0,1,.168,1.877c-.155.44-.35.647-.427.621s-.065-.311,0-.725a2.227,2.227,0,0,0-.246-1.385,4.258,4.258,0,0,0-1.075-1.088C368.382,201.295,368.11,201.256,368.11,201.153Z" transform="translate(-353.457 -95.495)" fill="#aa6550"/>
      <path id="Path_1077" data-name="Path 1077" d="M381.154,194.834l-7.677-.324-8.066,1.58s-.673,1.463,3.068,2.46a18.126,18.126,0,0,0,7.186.35s3.327,4.842,7.652,5.969" transform="translate(-354.267 -97.41)" fill="#b78876"/>
      <path id="Path_1078" data-name="Path 1078" d="M383.4,204.921a2.317,2.317,0,0,1-.712-.129,9.242,9.242,0,0,1-1.864-.8,17.492,17.492,0,0,1-5.321-4.881l.3.129a16.922,16.922,0,0,1-8.843-.829,4.558,4.558,0,0,1-1.295-.8,1.528,1.528,0,0,1-.5-1.605v-.155h.194l8.079-1.515h.065c2.33.129,4.247.246,5.58.35a10.447,10.447,0,0,1,2.084.246,10.655,10.655,0,0,1-2.1.065c-1.295,0-3.263,0-5.593-.117h.065l-7.988,1.618.246-.194a.932.932,0,0,0,.363.842,3.522,3.522,0,0,0,1.088.673,16.831,16.831,0,0,0,8.454.867h.194l.1.155a18.849,18.849,0,0,0,5.01,4.907C382.437,204.61,383.434,204.83,383.4,204.921Z" transform="translate(-354.346 -97.463)" fill="#aa6550"/>
      <path id="Path_1079" data-name="Path 1079" d="M370.761,191.876c-.1.155-.842-.181-1.4-.971s-.634-1.592-.453-1.644.518.57,1.01,1.295S370.878,191.721,370.761,191.876Z" transform="translate(-353.247 -98.958)" fill="#aa6550"/>
      <path id="Path_1080" data-name="Path 1080" d="M435.47,299.235c13.219,5.71,28.677,7.406,46.13,5.554l12.817-130.207-9.063-6.952-20.9,15.536L457.311,168.2l-16.766,24.094Z" transform="translate(-333.607 -105.332)" fill="#f5f5f5"/>
      <path id="Path_1081" data-name="Path 1081" d="M452.707,301.965a.991.991,0,0,0-.078-.3,5.762,5.762,0,0,1-.142-.919c-.117-.867-.285-2.059-.492-3.56s-.233-3.444-.376-5.645-.1-4.726-.168-7.509c-.078-11.108.673-26.451,1.9-43.359s2.771-32.186,4.014-43.23c.609-5.515,1.165-9.969,1.592-13.05.207-1.541.4-2.732.531-3.535a4.8,4.8,0,0,1,.155-.919l.078-.311a1.01,1.01,0,0,1,0,.324,3.2,3.2,0,0,1-.1.919c-.091.867-.233,2.059-.4,3.547-.337,3.146-.8,7.6-1.385,13.076-1.1,11.057-2.589,26.321-3.806,43.23s-2.046,32.212-2.1,43.307c0,2.784,0,5.3.065,7.5s.194,4.078.259,5.645.272,2.68.363,3.547l.078.932a1.4,1.4,0,0,1,.013.311Z" transform="translate(-328.899 -101.795)" fill="#263238"/>
      <path id="Path_1082" data-name="Path 1082" d="M467.292,324.686s-9.736-101.776-3.7-113.143c4.674-8.8,11.911-27.189,14.941-35.034a9.478,9.478,0,0,0-.194-7.263l-.712-1.605,9.063,6.952,18.6,10.008-11.238,86.214,12.727,43.748Z" transform="translate(-325.902 -105.329)" fill="#41d9ca"/>
      <g id="Group_596" data-name="Group 596" transform="translate(137.92 175.325)" opacity="0.3">
        <path id="Path_1083" data-name="Path 1083" d="M464.278,269.5c7.911-1.657,4.493,2.939,12.494,1.774,4.324-.621,4.544-3.159,8.1-5.684a24.5,24.5,0,0,1,13.309-4.557l-1.774-6.1-33.092,1.23Z" transform="translate(-463.32 -254.93)"/>
      </g>
      <path id="Path_1084" data-name="Path 1084" d="M429.58,189.181l3.224,81.294-6.474,45.508,16.3,6.033,7.082-125.766a33.9,33.9,0,0,1,3.068-13.53l6.4-13.931-21.621,7.38Z" transform="translate(-336.3 -104.99)" fill="#41d9ca"/>
      <path id="Path_1085" data-name="Path 1085" d="M503.348,180.74s10.2,8.83,12.507,20.715c1.67,8.661,6.6,39.035,7.975,54.636a18.4,18.4,0,0,1-15.536,19.861h-.44c-14.8,2.02-39.643-.777-39.643-.777l4.324-18.9s22.01-3.172,25.894-5.826l-5.243-35.073S497.483,181.75,503.348,180.74Z" transform="translate(-323.959 -101.468)" fill="#41d9ca"/>
      <path id="Path_1086" data-name="Path 1086" d="M390.381,200.382l36.057,22.8s12.947-38.077,21.285-47.036l10.034-3.405L448.6,245.812a14.837,14.837,0,0,1-6.6,10.047h0a14.876,14.876,0,0,1-17.4-.945l-44.02-35.721Z" transform="translate(-349.782 -103.826)" fill="#41d9ca"/>
      <path id="Path_1087" data-name="Path 1087" d="M498.16,246.5a16.971,16.971,0,0,1-.207-2.123,13.051,13.051,0,0,0-4.881-8.545,16.339,16.339,0,0,1-1.722-1.295,4.454,4.454,0,0,1,1.994.88,11.355,11.355,0,0,1,5.075,8.895,4.338,4.338,0,0,1-.259,2.188Z" transform="translate(-317.139 -85.614)" fill="#263238"/>
      <path id="Path_1088" data-name="Path 1088" d="M494.293,249.067a27.38,27.38,0,0,0-.091-7.652,28.274,28.274,0,0,0-2.822-7.095,5.671,5.671,0,0,1,1.45,1.787,15.744,15.744,0,0,1,2.136,10.746A5.646,5.646,0,0,1,494.293,249.067Z" transform="translate(-317.131 -85.679)" fill="#263238"/>
      <path id="Path_1089" data-name="Path 1089" d="M495.59,183.49a28.9,28.9,0,0,0-3.884,3.884,25.1,25.1,0,0,0-4.8,12.274,51.592,51.592,0,0,0,.479,13.374c.233,1.592.44,2.939.609,4.039a7.093,7.093,0,0,1,.155,1.5,6.309,6.309,0,0,1-.414-1.45c-.22-.945-.518-2.317-.829-4.026a46.4,46.4,0,0,1-.673-13.53,24.171,24.171,0,0,1,5.1-12.481,15.9,15.9,0,0,1,3-2.835A5.282,5.282,0,0,1,495.59,183.49Z" transform="translate(-318.712 -100.658)" fill="#263238"/>
      <g id="Group_597" data-name="Group 597" transform="translate(174.728 148.732)" opacity="0.3">
        <path id="Path_1090" data-name="Path 1090" d="M491.75,234.39a11.924,11.924,0,0,1,2.589,7.25,22.424,22.424,0,0,1-1.295,7.768,1.683,1.683,0,0,0,0,1.411,1.139,1.139,0,0,0,1.631.065,3.288,3.288,0,0,0,.816-1.657c-.311.35.142.945.609.919a1.541,1.541,0,0,0,1.075-.816,8.493,8.493,0,0,0,.3-7.7,22.009,22.009,0,0,0-4.661-6.473" transform="translate(-491.75 -234.39)"/>
      </g>
      <path id="Path_1091" data-name="Path 1091" d="M423.276,225.975A39.592,39.592,0,0,1,416,211.63c.181,0,1.5,3.288,3.522,7.25S423.444,225.859,423.276,225.975Z" transform="translate(-339.344 -92.365)" fill="#263238"/>
      <path id="Path_1092" data-name="Path 1092" d="M418.466,228.755a9.387,9.387,0,0,1-.932-2.369,64.44,64.44,0,0,1-2.253-12.287,9.255,9.255,0,0,1,0-2.589c.194,0,.634,3.884,1.515,8.674S418.66,228.7,418.466,228.755Z" transform="translate(-339.583 -92.401)" fill="#263238"/>
      <path id="Path_1093" data-name="Path 1093" d="M431.407,192.44c.194,0,.337,15.912.337,35.526s-.142,35.539-.337,35.539-.337-15.9-.337-35.539S431.225,192.44,431.407,192.44Z" transform="translate(-334.903 -98.02)" fill="#263238"/>
      <path id="Path_1094" data-name="Path 1094" d="M451.351,170a3.368,3.368,0,0,1-.427.621l-1.295,1.761c-1.087,1.554-2.667,3.806-4.35,6.771a41.094,41.094,0,0,0-4.609,10.966c-.4,2.175-.66,4.6-1.023,7.056-1.075,2.589,1.476,4.272,3.547,5.671l.518.35-.583.246a11.653,11.653,0,0,0-2.1,1.295,32.5,32.5,0,0,0-2.589,2.227l.1-.259c.4,5.179,1.295,10,1.877,14.4s1.165,8.325,1.631,11.652.79,5.878,1.049,7.768c.1.867.181,1.567.246,2.11a4.6,4.6,0,0,1,0,.751,2.694,2.694,0,0,1-.181-.725c-.091-.544-.207-1.295-.363-2.1-.311-1.9-.725-4.531-1.295-7.768s-1.113-7.25-1.787-11.652-1.528-9.218-1.955-14.449v-.155l.129-.117c.816-.751,1.709-1.528,2.667-2.266a11.263,11.263,0,0,1,2.279-1.437l-.065.6a14.242,14.242,0,0,1-3.094-2.525,3.767,3.767,0,0,1-.945-1.864,2.668,2.668,0,0,1,0-.557l.078-.466.129-.919c.375-2.46.634-4.8,1.075-7.095a30.011,30.011,0,0,1,2.175-6.111,49.911,49.911,0,0,1,2.589-4.959,65.752,65.752,0,0,1,4.557-6.681c.583-.751,1.049-1.295,1.385-1.7a3.656,3.656,0,0,1,.622-.44Z" transform="translate(-332.929 -104.633)" fill="#263238"/>
      <path id="Path_1095" data-name="Path 1095" d="M482.923,171.81a2.513,2.513,0,0,1,.168.544,11.032,11.032,0,0,1,.324,1.605,23.576,23.576,0,0,1,0,6.007,57.657,57.657,0,0,1-1.942,8.687,71.218,71.218,0,0,1-3.7,10.254c-1.411,3.172-2.913,6.137-4.285,8.869l-.078.129h-.142l-3.12.621.155-.479,2.02,2.382.129.155-.1.168-4.518,7.263L466.532,220a3.885,3.885,0,0,1-.492.673,2.838,2.838,0,0,1,.349-.751c.324-.557.7-1.295,1.165-2.071,1.1-1.864,2.589-4.376,4.324-7.38v.324l-2.007-2.33-.324-.375.492-.1,3.12-.66-.22.168c1.359-2.732,2.835-5.7,4.247-8.856a77.677,77.677,0,0,0,3.716-10.15,62.64,62.64,0,0,0,2.058-8.584,25.594,25.594,0,0,0,.233-5.917A14.481,14.481,0,0,1,482.923,171.81Z" transform="translate(-324.598 -104.1)" fill="#263238"/>
      <g id="Group_598" data-name="Group 598" transform="translate(74.204 118.32)" opacity="0.3">
        <path id="Path_1096" data-name="Path 1096" d="M422.281,225.595c-1.605-4.583-3.819-9.205-5.787-13.659l-1.631-1.036a19.627,19.627,0,0,0,.608,12.584,1.3,1.3,0,0,0,.673.893c.479.168,1-.285,1.1-.777a2.783,2.783,0,0,0-.272-1.476,38.183,38.183,0,0,0,3.625,5.36,1.514,1.514,0,0,0,.777.621,1.075,1.075,0,0,0,1.152-.906A3,3,0,0,0,422.281,225.595Z" transform="translate(-414.106 -210.9)"/>
      </g>
      <g id="Group_599" data-name="Group 599" transform="translate(101.858 94.937)" opacity="0.3">
        <path id="Path_1097" data-name="Path 1097" d="M443.187,234.8c-3.107-8.791-6.227-17.647-7.457-26.891a15.718,15.718,0,0,1,.078-6.124,6.318,6.318,0,0,1,3.884-4.506,3.444,3.444,0,0,1-.065-4.441c1.295,1.295,2.589,2.68,3.794,4.026a4.7,4.7,0,0,0-4.182,3.547,13.711,13.711,0,0,0,0,5.852q1.929,14.423,3.884,28.859" transform="translate(-435.466 -192.84)"/>
      </g>
      <g id="Group_600" data-name="Group 600" transform="translate(141.377 86.328)" opacity="0.3">
        <path id="Path_1098" data-name="Path 1098" d="M475.506,205.934q2.835-9.866,5.645-19.744l-4.79,11.329a15.537,15.537,0,0,1-2.486,4.467,5.308,5.308,0,0,1-4.531,1.955l2.939,2.007c-2.11,3.392-4.182,7.134-6.292,10.526l4.531.388,4.985-7.911-1.515-2.732Z" transform="translate(-465.99 -186.19)"/>
      </g>
      <path id="Path_1099" data-name="Path 1099" d="M452.077,169.823l.233-3.159,5.852,8.26,1.864,8.92,4.79-8.92,16.494-9.594v8.39l-3.146,8.157-6.15,4.752-7.043,3.081-8.377-1.567-5.049-2.861-1.126-5.917Z" transform="translate(-329.201 -106.009)" fill="#f5f5f5"/>
      <path id="Path_1100" data-name="Path 1100" d="M457.788,172.767a25.742,25.742,0,0,1-.854,3.017,24.251,24.251,0,0,0-.971,7.444l.065,1.295-.686-1.075-.4-.647a58.763,58.763,0,0,1-3.263-7.522c-.79-1.916-1.476-3.017-1.385-3.068a9.374,9.374,0,0,1,1.825,2.874c.958,1.877,1.813,4.661,3.392,7.367l.4.634-.621.194a21.453,21.453,0,0,1,1.2-7.626A10.359,10.359,0,0,1,457.788,172.767Z" transform="translate(-329.241 -103.982)" fill="#263238"/>
      <path id="Path_1101" data-name="Path 1101" d="M478.055,169.54v.35a4.542,4.542,0,0,1-.1.971,7.574,7.574,0,0,1-1.748,3.12,20.829,20.829,0,0,1-4.039,3.418,56.964,56.964,0,0,0-5.179,3.781,48.556,48.556,0,0,1-4.661,3.431l-.608.375.129-.7a18.929,18.929,0,0,0,.142-4.234c-.065-1.295-.181-2.434-.272-3.379a19.824,19.824,0,0,1-.246-2.991,15.122,15.122,0,0,1,.686,2.926c.142.932.3,2.072.414,3.379a18.58,18.58,0,0,1,0,4.389l-.479-.324c1.476-.945,2.978-2.162,4.57-3.431a51.239,51.239,0,0,1,5.179-3.768,21.866,21.866,0,0,0,4.026-3.211,7.95,7.95,0,0,0,1.826-2.861C477.99,170.006,477.99,169.54,478.055,169.54Z" transform="translate(-325.945 -104.769)" fill="#263238"/>
      <path id="Path_1102" data-name="Path 1102" d="M496.123,264.207a2.712,2.712,0,0,0-.518.078l-1.541.091c-1.295.065-3.3.142-5.774.181s-5.464,0-8.869,0c-1.7,0-3.5,0-5.386-.116l-2.913-.117-1.5-.117-.764-.078a2.348,2.348,0,0,1-.4-.065h-.337a.518.518,0,0,1-.259-.285v-.117c1.126-5.114,2.369-10.72,3.677-16.6.246-1.1.492-2.2.725-3.276v-.22h.233c10.112-1.476,19.343-2.991,25.894-5.723l-.142.272c-.634-4.531-1.152-8.234-1.515-10.875-.155-1.295-.285-2.227-.376-2.978a5.18,5.18,0,0,1-.078-1.036,9.076,9.076,0,0,1,.22,1.023c.129.738.3,1.722.5,2.939.427,2.589,1.01,6.331,1.735,10.85v.194l-.168.078c-6.6,2.848-15.847,4.428-25.984,5.93l.285-.259c-.246,1.075-.492,2.162-.738,3.276-1.295,5.865-2.589,11.471-3.716,16.572l-.272-.078c8.092.375,15.174.518,20.094.531h7.3a2.4,2.4,0,0,1,.583-.078Z" transform="translate(-324.062 -88.947)" fill="#263238"/>
      <path id="Path_1103" data-name="Path 1103" d="M507.478,215.87l-11.2,27.176-16.494,2.926-4.415,19.861,10.888.621-.078.738-42.751,1.217,18.087-52.539Z" transform="translate(-331.261 -91.116)" fill="#455a64"/>
      <path id="Path_1104" data-name="Path 1104" d="M456.837,208.92l6.02,9-18.087,52.539-5.891-10.086Z" transform="translate(-332.602 -93.164)" fill="#455a64"/>
      <path id="Path_1105" data-name="Path 1105" d="M504.732,217.918l-6.6-6.409L452.75,208.92l6.02,9Z" transform="translate(-328.515 -93.164)" fill="#ebebeb"/>
      <path id="Path_1106" data-name="Path 1106" d="M461.518,215.87c.181,0-3.729,11.872-8.726,26.373s-9.179,26.217-9.361,26.166,3.729-11.872,8.726-26.386S461.35,215.818,461.518,215.87Z" transform="translate(-331.263 -91.116)" fill="#263238"/>
      <path id="Path_1107" data-name="Path 1107" d="M480.094,243.5l-7.833-.673a40.586,40.586,0,0,0-5.023-6.8c-1.994-1.748-12.287-6.681-12.287-6.681a2.835,2.835,0,0,0,0,3.612,44.344,44.344,0,0,0,5.541,3.56h0a2.8,2.8,0,0,1-3.2,3.534c-3.017-.557-6.538-1.178-6.991-1.178s-3.535-2.848-5.735-5.01a1.877,1.877,0,0,0-3.172,1.722.855.855,0,0,0,.272.44s-3.185-.1-.35,4.169c0,0-.647,3.884,1.67,5.748,0,0,1.01,4.764,2.5,6.473s16.106,4.752,16.106,4.752l15.213,1.489Z" transform="translate(-332.23 -87.143)" fill="#b78876"/>
      <path id="Path_1108" data-name="Path 1108" d="M455.635,243.082a8.223,8.223,0,0,1-2.589,0,13.684,13.684,0,0,1-6.137-1.605,12.778,12.778,0,0,1-4.285-4.7,9.374,9.374,0,0,1-1.113-2.356,11.29,11.29,0,0,1,1.515,2.11,14.241,14.241,0,0,0,4.221,4.363,15.679,15.679,0,0,0,5.839,1.722,12.6,12.6,0,0,1,2.55.466Z" transform="translate(-331.827 -85.649)" fill="#aa6550"/>
      <path id="Path_1109" data-name="Path 1109" d="M454.25,245.476a4.713,4.713,0,0,1-2.382.181,15.26,15.26,0,0,1-2.589-.375,7.91,7.91,0,0,1-3-1.217,14.307,14.307,0,0,1-2.24-2.3l-1.605-2.007a8.661,8.661,0,0,1-1.359-1.942c.078-.065.725.57,1.722,1.631.492.544,1.087,1.191,1.722,1.916a16.232,16.232,0,0,0,2.162,2.162,8.157,8.157,0,0,0,2.758,1.165c.919.233,1.761.388,2.473.5C453.357,245.411,454.237,245.385,454.25,245.476Z" transform="translate(-331.957 -84.651)" fill="#aa6550"/>
      <path id="Path_1110" data-name="Path 1110" d="M451.823,247.957c0,.259-2.654-.285-5.735-1.152a2.59,2.59,0,0,1-1.139-.686,7.66,7.66,0,0,1-.79-.8,9.929,9.929,0,0,1-1.126-1.528c-.57-.919-.725-1.592-.647-1.618a12.658,12.658,0,0,1,1.036,1.295c.324.414.725.893,1.191,1.385a10.492,10.492,0,0,0,.777.725,2.278,2.278,0,0,0,.854.531c1.58.427,2.965.867,3.975,1.191A7.094,7.094,0,0,1,451.823,247.957Z" transform="translate(-331.575 -83.366)" fill="#aa6550"/>
    </g>
  </g>
</svg>
